<svg xmlns="http://www.w3.org/2000/svg" xmlns:xlink="http://www.w3.org/1999/xlink" viewBox="0 0 1865 777"><defs><style>.cls-1{fill:#003;}.cls-2{fill:#93a6c9;}.cls-3{fill:#00275c;}.cls-4{fill:url(#linear-gradient);}.cls-5{fill:#003ba2;}.cls-6{fill:#0061e7;}.cls-7{fill:#5c98ff;}.cls-8{fill:#8bb8ff;}.cls-9{fill:#fff;}</style><linearGradient id="linear-gradient" x1="663.92" y1="237.5" x2="718.92" y2="237.5" gradientUnits="userSpaceOnUse"><stop offset="0.11" stop-color="#003"/><stop offset="0.38" stop-color="#000437"/><stop offset="0.67" stop-color="#001044"/><stop offset="0.96" stop-color="#002459"/><stop offset="1" stop-color="#00275c"/></linearGradient></defs><title>Artboard 1</title><g id="background"><rect class="cls-1" x="-2" width="1865" height="775"/></g><g id="far-stars"><path class="cls-2" d="M1232.11,262a.75.75,0,0,0,0-1.5.75.75,0,0,0,0,1.5Z"/><path class="cls-2" d="M1388.91,293.28a.75.75,0,0,0,0-1.5.75.75,0,0,0,0,1.5Z"/><path class="cls-2" d="M1284,317a.75.75,0,0,0,0-1.5.75.75,0,0,0,0,1.5Z"/><path class="cls-2" d="M1507.62,377a.75.75,0,0,0,0-1.5.75.75,0,0,0,0,1.5Z"/><path class="cls-2" d="M1453.89,407a.75.75,0,0,0,0-1.5.75.75,0,0,0,0,1.5Z"/><path class="cls-2" d="M1435.14,324.51a.75.75,0,0,0,0-1.5.75.75,0,0,0,0,1.5Z"/><path class="cls-2" d="M1562.6,262a.75.75,0,0,0,0-1.5.75.75,0,0,0,0,1.5Z"/><path class="cls-2" d="M1026.55,357a.75.75,0,0,0,0-1.5.75.75,0,0,0,0,1.5Z"/><path class="cls-2" d="M1030.3,420.73a.75.75,0,0,0,0-1.5.75.75,0,0,0,0,1.5Z"/><path class="cls-2" d="M1075.28,424.47a.75.75,0,0,0,0-1.5.75.75,0,0,0,0,1.5Z"/><path class="cls-2" d="M1030.3,463.21a.75.75,0,0,0,0-1.5.75.75,0,0,0,0,1.5Z"/><path class="cls-2" d="M924.09,399.48a.75.75,0,0,0,0-1.5.75.75,0,0,0,0,1.5Z"/><path class="cls-2" d="M911.6,424.47a.75.75,0,0,0,0-1.5.75.75,0,0,0,0,1.5Z"/><path class="cls-2" d="M639.2,352a.75.75,0,0,0,0-1.5.75.75,0,0,0,0,1.5Z"/><path class="cls-2" d="M754.16,314.52a.75.75,0,0,0,0-1.5.75.75,0,0,0,0,1.5Z"/><path class="cls-2" d="M766.65,350.75a.75.75,0,0,0,0-1.5.75.75,0,0,0,0,1.5Z"/><path class="cls-2" d="M661.69,323.26a.75.75,0,0,0,0-1.5.75.75,0,0,0,0,1.5Z"/><path class="cls-2" d="M521.75,283.28a.75.75,0,0,0,0-1.5.75.75,0,0,0,0,1.5Z"/><path class="cls-2" d="M433,253.29a.75.75,0,0,0,0-1.5.75.75,0,0,0,0,1.5Z"/><path class="cls-2" d="M385.55,375.74a.75.75,0,0,0,0-1.5.75.75,0,0,0,0,1.5Z"/><path class="cls-2" d="M288.09,290.78a.75.75,0,0,0,0-1.5.75.75,0,0,0,0,1.5Z"/><path class="cls-2" d="M374.31,224.55a.75.75,0,0,0,0-1.5.75.75,0,0,0,0,1.5Z"/><path class="cls-2" d="M615.46,184.57a.75.75,0,0,0,0-1.5.75.75,0,0,0,0,1.5Z"/><path class="cls-2" d="M1443.89,345.38a.38.38,0,0,0,0-.75.38.38,0,0,0,0,.75Z"/><path class="cls-2" d="M1501.37,316.64a.38.38,0,0,0,0-.75.38.38,0,0,0,0,.75Z"/><path class="cls-2" d="M1342.68,380.37a.38.38,0,0,0,0-.75.38.38,0,0,0,0,.75Z"/><path class="cls-2" d="M1220.23,299.15a.38.38,0,0,0,0-.75.38.38,0,0,0,0,.75Z"/><path class="cls-2" d="M1311.44,191.69a.38.38,0,0,0,0-.75.38.38,0,0,0,0,.75Z"/><path class="cls-2" d="M1229,185.44a.38.38,0,0,0,0-.75.38.38,0,0,0,0,.75Z"/><path class="cls-2" d="M1090.28,270.41a.38.38,0,0,0,0-.75.38.38,0,0,0,0,.75Z"/><path class="cls-2" d="M1027.8,239.17a.38.38,0,0,0,0-.75.38.38,0,0,0,0,.75Z"/><path class="cls-2" d="M996.56,275.41a.38.38,0,0,0,0-.75.38.38,0,0,0,0,.75Z"/><path class="cls-2" d="M1075.28,277.91a.38.38,0,0,0,0-.75.38.38,0,0,0,0,.75Z"/><path class="cls-2" d="M840.38,281.65a.38.38,0,0,0,0-.75.38.38,0,0,0,0,.75Z"/><path class="cls-2" d="M840.38,206.68a.38.38,0,0,0,0-.75.38.38,0,0,0,0,.75Z"/><path class="cls-2" d="M930.34,210.43a.38.38,0,0,0,0-.75.38.38,0,0,0,0,.75Z"/><path class="cls-2" d="M911.6,232.92a.38.38,0,0,0,0-.75.38.38,0,0,0,0,.75Z"/><path class="cls-2" d="M970.33,367.87a.38.38,0,0,0,0-.75.38.38,0,0,0,0,.75Z"/><path class="cls-2" d="M990.32,399.11a.38.38,0,0,0,0-.75.38.38,0,0,0,0,.75Z"/><path class="cls-2" d="M931.59,421.6a.38.38,0,0,0,0-.75.38.38,0,0,0,0,.75Z"/><path class="cls-2" d="M1012.81,462.83a.38.38,0,0,0,0-.75.38.38,0,0,0,0,.75Z"/><path class="cls-2" d="M947.83,442.84a.38.38,0,0,0,0-.75.38.38,0,0,0,0,.75Z"/><path class="cls-2" d="M790.39,426.6a.38.38,0,0,0,0-.75.38.38,0,0,0,0,.75Z"/><path class="cls-2" d="M829.13,447.84a.38.38,0,0,0,0-.75.38.38,0,0,0,0,.75Z"/><path class="cls-2" d="M829.13,390.36a.38.38,0,0,0,0-.75.38.38,0,0,0,0,.75Z"/><path class="cls-2" d="M548,364.12a.38.38,0,0,0,0-.75.38.38,0,0,0,0,.75Z"/><path class="cls-2" d="M635.45,359.12a.38.38,0,0,0,0-.75.38.38,0,0,0,0,.75Z"/><path class="cls-2" d="M705.43,335.38a.38.38,0,0,0,0-.75.38.38,0,0,0,0,.75Z"/><path class="cls-2" d="M444.28,390.36a.38.38,0,0,0,0-.75.38.38,0,0,0,0,.75Z"/><path class="cls-2" d="M351.81,410.35a.38.38,0,0,0,0-.75.38.38,0,0,0,0,.75Z"/><path class="cls-2" d="M399.3,350.38a.38.38,0,0,0,0-.75.38.38,0,0,0,0,.75Z"/><path class="cls-2" d="M473,280.41a.38.38,0,0,0,0-.75.38.38,0,0,0,0,.75Z"/><path class="cls-2" d="M434.28,206.68a.38.38,0,0,0,0-.75.38.38,0,0,0,0,.75Z"/><path class="cls-2" d="M380.55,266.66a.38.38,0,0,0,0-.75.38.38,0,0,0,0,.75Z"/><path class="cls-2" d="M409.29,311.64a.38.38,0,0,0,0-.75.38.38,0,0,0,0,.75Z"/><path class="cls-2" d="M264.35,280.41a.38.38,0,0,0,0-.75.38.38,0,0,0,0,.75Z"/><path class="cls-2" d="M423,279.16a.38.38,0,0,0,0-.75.38.38,0,0,0,0,.75Z"/><path class="cls-2" d="M756.66,254.17a.38.38,0,0,0,0-.75.38.38,0,0,0,0,.75Z"/><path class="cls-2" d="M926.59,279.16a.38.38,0,0,0,0-.75.38.38,0,0,0,0,.75Z"/><path class="cls-2" d="M951.58,315.39a.38.38,0,0,0,0-.75.38.38,0,0,0,0,.75Z"/><path class="cls-2" d="M1196.49,364.12a.38.38,0,0,0,0-.75.38.38,0,0,0,0,.75Z"/><path class="cls-2" d="M1242.72,317.89a.38.38,0,0,0,0-.75.38.38,0,0,0,0,.75Z"/><path class="cls-2" d="M1294,407.86a.38.38,0,0,0,0-.75.38.38,0,0,0,0,.75Z"/><path class="cls-2" d="M1242.72,415.35a.38.38,0,0,0,0-.75.38.38,0,0,0,0,.75Z"/><path class="cls-2" d="M1501.37,441.59a.38.38,0,0,0,0-.75.38.38,0,0,0,0,.75Z"/><path class="cls-2" d="M1320.19,460.34a.38.38,0,0,0,0-.75.38.38,0,0,0,0,.75Z"/><path class="cls-2" d="M1571.34,390.36a.38.38,0,0,0,0-.75.38.38,0,0,0,0,.75Z"/><path class="cls-2" d="M1475.13,355.38a.38.38,0,0,0,0-.75.38.38,0,0,0,0,.75Z"/><path class="cls-2" d="M1498.87,282.9a.38.38,0,0,0,0-.75.38.38,0,0,0,0,.75Z"/><path class="cls-2" d="M1575.09,205.43a.38.38,0,0,0,0-.75.38.38,0,0,0,0,.75Z"/><path class="cls-2" d="M1475.13,181.69a.38.38,0,0,0,0-.75.38.38,0,0,0,0,.75Z"/><path class="cls-2" d="M1625.07,309.14a.38.38,0,0,0,0-.75.38.38,0,0,0,0,.75Z"/><path class="cls-2" d="M1107.77,174.2a.38.38,0,0,0,0-.75.38.38,0,0,0,0,.75Z"/><path class="cls-2" d="M1181.49,224.18a.38.38,0,0,0,0-.75.38.38,0,0,0,0,.75Z"/><path class="cls-2" d="M1034.05,215.43a.38.38,0,0,0,0-.75.38.38,0,0,0,0,.75Z"/><path class="cls-2" d="M1119,210.43a.38.38,0,0,0,0-.75.38.38,0,0,0,0,.75Z"/><path class="cls-2" d="M1289,237.92a.38.38,0,0,0,0-.75.38.38,0,0,0,0,.75Z"/><path class="cls-2" d="M1280.2,276.66a.38.38,0,0,0,0-.75.38.38,0,0,0,0,.75Z"/><path class="cls-2" d="M1131.51,319.14a.38.38,0,0,0,0-.75.38.38,0,0,0,0,.75Z"/><path class="cls-2" d="M1176.5,355.38a.38.38,0,0,0,0-.75.38.38,0,0,0,0,.75Z"/><path class="cls-2" d="M1036.55,307.89a.38.38,0,0,0,0-.75.38.38,0,0,0,0,.75Z"/><path class="cls-2" d="M880.36,410.35a.38.38,0,0,0,0-.75.38.38,0,0,0,0,.75Z"/><path class="cls-2" d="M914.1,365.37a.38.38,0,0,0,0-.75.38.38,0,0,0,0,.75Z"/><path class="cls-2" d="M812.89,254.17a.38.38,0,0,0,0-.75.38.38,0,0,0,0,.75Z"/><path class="cls-2" d="M907.85,191.69a.38.38,0,0,0,0-.75.38.38,0,0,0,0,.75Z"/><path class="cls-2" d="M579.23,317.89a.38.38,0,0,0,0-.75.38.38,0,0,0,0,.75Z"/><path class="cls-2" d="M588,356.63a.38.38,0,0,0,0-.75.38.38,0,0,0,0,.75Z"/><path class="cls-2" d="M485.51,412.85a.38.38,0,0,0,0-.75.38.38,0,0,0,0,.75Z"/><path class="cls-2" d="M485.51,337.88a.38.38,0,0,0,0-.75.38.38,0,0,0,0,.75Z"/><path class="cls-2" d="M453,355.38a.38.38,0,0,0,0-.75.38.38,0,0,0,0,.75Z"/><path class="cls-2" d="M579.23,311.64a.38.38,0,0,0,0-.75.38.38,0,0,0,0,.75Z"/><path class="cls-2" d="M514.25,216.68a.38.38,0,0,0,0-.75.38.38,0,0,0,0,.75Z"/><path class="cls-2" d="M549.24,190.44a.38.38,0,0,0,0-.75.38.38,0,0,0,0,.75Z"/><path class="cls-2" d="M274.34,395.36a.38.38,0,0,0,0-.75.38.38,0,0,0,0,.75Z"/><path class="cls-2" d="M429.28,432.85a.38.38,0,0,0,0-.75.38.38,0,0,0,0,.75Z"/><path class="cls-2" d="M379.3,422.85a.38.38,0,0,0,0-.75.38.38,0,0,0,0,.75Z"/><path class="cls-2" d="M211.87,235.42a.38.38,0,0,0,0-.75.38.38,0,0,0,0,.75Z"/><path class="cls-2" d="M181.88,196.69a.38.38,0,0,0,0-.75.38.38,0,0,0,0,.75Z"/><path class="cls-2" d="M229.36,176.7a.38.38,0,0,0,0-.75.38.38,0,0,0,0,.75Z"/><path class="cls-2" d="M219.37,197.94a.38.38,0,0,0,0-.75.38.38,0,0,0,0,.75Z"/><path class="cls-2" d="M1545.1,234.17a.38.38,0,0,0,0-.75.38.38,0,0,0,0,.75Z"/><path class="cls-2" d="M1677.55,205.43a.38.38,0,0,0,0-.75.38.38,0,0,0,0,.75Z"/><path class="cls-2" d="M1597.58,274.16a.38.38,0,0,0,0-.75.38.38,0,0,0,0,.75Z"/><path class="cls-2" d="M876.61,270.41a.38.38,0,0,0,0-.75.38.38,0,0,0,0,.75Z"/><path class="cls-2" d="M800.39,285.4a.38.38,0,0,0,0-.75.38.38,0,0,0,0,.75Z"/><path class="cls-2" d="M666.69,386.61a.38.38,0,0,0,0-.75.38.38,0,0,0,0,.75Z"/><path class="cls-2" d="M460.52,317.89a.38.38,0,0,0,0-.75.38.38,0,0,0,0,.75Z"/><path class="cls-2" d="M831.63,345.26a1.5,1.5,0,0,0,0-3,1.5,1.5,0,0,0,0,3Z"/><path class="cls-2" d="M876.61,337.88a.38.38,0,0,0,0-.75.38.38,0,0,0,0,.75Z"/><path class="cls-2" d="M877.86,375.37a.38.38,0,0,0,0-.75.38.38,0,0,0,0,.75Z"/><path class="cls-2" d="M780.4,367.87a.38.38,0,0,0,0-.75.38.38,0,0,0,0,.75Z"/><path class="cls-2" d="M836.63,365.37a.38.38,0,0,0,0-.75.38.38,0,0,0,0,.75Z"/><path class="cls-2" d="M849.12,330.39a.38.38,0,0,0,0-.75.38.38,0,0,0,0,.75Z"/><path class="cls-2" d="M796.64,316.64a.38.38,0,0,0,0-.75.38.38,0,0,0,0,.75Z"/><path class="cls-2" d="M495.51,400.36a.38.38,0,0,0,0-.75.38.38,0,0,0,0,.75Z"/><path class="cls-2" d="M498,444.09a.38.38,0,0,0,0-.75.38.38,0,0,0,0,.75Z"/><path class="cls-2" d="M534.24,452.84a.38.38,0,0,0,0-.75.38.38,0,0,0,0,.75Z"/><path class="cls-2" d="M580.48,470.33a.38.38,0,0,0,0-.75.38.38,0,0,0,0,.75Z"/><path class="cls-2" d="M1061.54,484.08a.38.38,0,0,0,0-.75.38.38,0,0,0,0,.75Z"/><path class="cls-2" d="M1109,442.84a.38.38,0,0,0,0-.75.38.38,0,0,0,0,.75Z"/><path class="cls-2" d="M1130.26,389.11a.38.38,0,0,0,0-.75.38.38,0,0,0,0,.75Z"/><path class="cls-2" d="M1135.26,349.13a.38.38,0,0,0,0-.75.38.38,0,0,0,0,.75Z"/><path class="cls-2" d="M1184,385.36a.38.38,0,0,0,0-.75.38.38,0,0,0,0,.75Z"/><path class="cls-2" d="M1161.5,419.1a.38.38,0,0,0,0-.75.38.38,0,0,0,0,.75Z"/><path class="cls-2" d="M1264,391.61a.38.38,0,0,0,0-.75.38.38,0,0,0,0,.75Z"/><path class="cls-2" d="M1232.72,366.62a.38.38,0,0,0,0-.75.38.38,0,0,0,0,.75Z"/><path class="cls-2" d="M1325.19,357.88a.38.38,0,0,0,0-.75.38.38,0,0,0,0,.75Z"/><path class="cls-2" d="M1321.44,322.89a.38.38,0,0,0,0-.75.38.38,0,0,0,0,.75Z"/><path class="cls-2" d="M1157.75,316.64a.38.38,0,0,0,0-.75.38.38,0,0,0,0,.75Z"/><path class="cls-2" d="M1401.41,375.37a.38.38,0,0,0,0-.75.38.38,0,0,0,0,.75Z"/><path class="cls-2" d="M1373.92,392.86a.38.38,0,0,0,0-.75.38.38,0,0,0,0,.75Z"/><path class="cls-2" d="M1406.41,444.09a.38.38,0,0,0,0-.75.38.38,0,0,0,0,.75Z"/><path class="cls-2" d="M1326.44,241.67a.38.38,0,0,0,0-.75.38.38,0,0,0,0,.75Z"/><path class="cls-2" d="M1413.9,246.67a.38.38,0,0,0,0-.75.38.38,0,0,0,0,.75Z"/><path class="cls-2" d="M1537.61,356.63a.38.38,0,0,0,0-.75.38.38,0,0,0,0,.75Z"/><path class="cls-2" d="M1472.63,391.61a.38.38,0,0,0,0-.75.38.38,0,0,0,0,.75Z"/><path class="cls-2" d="M681.69,350.38a.38.38,0,0,0,0-.75.38.38,0,0,0,0,.75Z"/><path class="cls-2" d="M701.68,254.17a.38.38,0,0,0,0-.75.38.38,0,0,0,0,.75Z"/><path class="cls-2" d="M710.43,215.43a.38.38,0,0,0,0-.75.38.38,0,0,0,0,.75Z"/><path class="cls-2" d="M664.19,210.43a.38.38,0,0,0,0-.75.38.38,0,0,0,0,.75Z"/><path class="cls-2" d="M702.93,181.69a.38.38,0,0,0,0-.75.38.38,0,0,0,0,.75Z"/><path class="cls-2" d="M328.07,332.88a.38.38,0,0,0,0-.75.38.38,0,0,0,0,.75Z"/><path class="cls-2" d="M331.82,282.9a.38.38,0,0,0,0-.75.38.38,0,0,0,0,.75Z"/><path class="cls-2" d="M290.59,276.66a.38.38,0,0,0,0-.75.38.38,0,0,0,0,.75Z"/><path class="cls-2" d="M290.59,224.18a.38.38,0,0,0,0-.75.38.38,0,0,0,0,.75Z"/><path class="cls-2" d="M341.82,207.93a.38.38,0,0,0,0-.75.38.38,0,0,0,0,.75Z"/><path class="cls-2" d="M299.34,386.61a.38.38,0,0,0,0-.75.38.38,0,0,0,0,.75Z"/><path class="cls-2" d="M304.33,391.61a.38.38,0,0,0,0-.75.38.38,0,0,0,0,.75Z"/><path class="cls-2" d="M308.08,400.36a.38.38,0,0,0,0-.75.38.38,0,0,0,0,.75Z"/><path class="cls-2" d="M445.53,407.86a.38.38,0,0,0,0-.75.38.38,0,0,0,0,.75Z"/><path class="cls-2" d="M535.49,419.1a.38.38,0,0,0,0-.75.38.38,0,0,0,0,.75Z"/><path class="cls-2" d="M395.55,447.84a.38.38,0,0,0,0-.75.38.38,0,0,0,0,.75Z"/><path class="cls-2" d="M323.08,447.84a.38.38,0,0,0,0-.75.38.38,0,0,0,0,.75Z"/><path class="cls-2" d="M545.49,472.83a.38.38,0,0,0,0-.75.38.38,0,0,0,0,.75Z"/><path class="cls-2" d="M560.48,444.09a.38.38,0,0,0,0-.75.38.38,0,0,0,0,.75Z"/><path class="cls-2" d="M546.74,314.14a.38.38,0,0,0,0-.75.38.38,0,0,0,0,.75Z"/><path class="cls-2" d="M561.73,286.65a.38.38,0,0,0,0-.75.38.38,0,0,0,0,.75Z"/><path class="cls-2" d="M767.9,266.66a.38.38,0,0,0,0-.75.38.38,0,0,0,0,.75Z"/><path class="cls-2" d="M726.67,271.66a.38.38,0,0,0,0-.75.38.38,0,0,0,0,.75Z"/><path class="cls-2" d="M880.36,210.43a.38.38,0,0,0,0-.75.38.38,0,0,0,0,.75Z"/><path class="cls-2" d="M1180.24,185.44a.38.38,0,0,0,0-.75.38.38,0,0,0,0,.75Z"/><path class="cls-2" d="M991.57,177.94a.38.38,0,0,0,0-.75.38.38,0,0,0,0,.75Z"/><path class="cls-2" d="M1375.17,200.44a.38.38,0,0,0,0-.75.38.38,0,0,0,0,.75Z"/><path class="cls-2" d="M1367.67,219.18a.38.38,0,0,0,0-.75.38.38,0,0,0,0,.75Z"/><path class="cls-2" d="M1391.41,206.68a.38.38,0,0,0,0-.75.38.38,0,0,0,0,.75Z"/><path class="cls-2" d="M1202.73,177.94a.38.38,0,0,0,0-.75.38.38,0,0,0,0,.75Z"/><path class="cls-2" d="M1736.39,61.66a.38.38,0,0,0,0-.75.38.38,0,0,0,0,.75Z"/><path class="cls-2" d="M1773.24,61.66a.38.38,0,0,0,0-.75.38.38,0,0,0,0,.75Z"/><path class="cls-2" d="M1800,109.67a.38.38,0,0,0,0-.75.38.38,0,0,0,0,.75Z"/><path class="cls-2" d="M1735.28,144.28a.38.38,0,0,0,0-.75.38.38,0,0,0,0,.75Z"/><path class="cls-2" d="M1813.43,197.87a.38.38,0,0,0,0-.75.38.38,0,0,0,0,.75Z"/><path class="cls-2" d="M1711.83,194.52a.38.38,0,0,0,0-.75.38.38,0,0,0,0,.75Z"/><path class="cls-2" d="M1779.94,151a.38.38,0,0,0,0-.75.38.38,0,0,0,0,.75Z"/><path class="cls-2" d="M1822.37,5.83a.38.38,0,0,0,0-.75.38.38,0,0,0,0,.75Z"/><path class="cls-2" d="M1426,70.59a.38.38,0,0,0,0-.75.38.38,0,0,0,0,.75Z"/><path class="cls-2" d="M1386.92,96.27a.38.38,0,0,0,0-.75.38.38,0,0,0,0,.75Z"/><path class="cls-2" d="M1475.13,111.9a.38.38,0,0,0,0-.75.38.38,0,0,0,0,.75Z"/><path class="cls-2" d="M1453.91,163.26a.38.38,0,0,0,0-.75.38.38,0,0,0,0,.75Z"/><path class="cls-2" d="M1379.1,125.3a.38.38,0,0,0,0-.75.38.38,0,0,0,0,.75Z"/><path class="cls-2" d="M1400.32,122a.38.38,0,0,0,0-.75.38.38,0,0,0,0,.75Z"/><path class="cls-2" d="M1615.81,289.43a.38.38,0,0,0,0-.75.38.38,0,0,0,0,.75Z"/><path class="cls-2" d="M1614.69,237a.38.38,0,0,0,0-.75.38.38,0,0,0,0,.75Z"/><path class="cls-2" d="M1695.08,266a.38.38,0,0,0,0-.75.38.38,0,0,0,0,.75Z"/><path class="cls-2" d="M1695.08,325.16a.38.38,0,0,0,0-.75.38.38,0,0,0,0,.75Z"/><path class="cls-2" d="M1711.83,324a.38.38,0,0,0,0-.75.38.38,0,0,0,0,.75Z"/><path class="cls-2" d="M1700.66,311.76a.38.38,0,0,0,0-.75.38.38,0,0,0,0,.75Z"/><path class="cls-2" d="M1694,384.33a.38.38,0,0,0,0-.75.38.38,0,0,0,0,.75Z"/><path class="cls-2" d="M1549.93,396.62a.38.38,0,0,0,0-.75.38.38,0,0,0,0,.75Z"/><path class="cls-2" d="M1041.91,263.75a.38.38,0,0,0,0-.75.38.38,0,0,0,0,.75Z"/><path class="cls-2" d="M904.58,37.09a.38.38,0,0,0,0-.75.38.38,0,0,0,0,.75Z"/><path class="cls-2" d="M929.14,53.84a.38.38,0,0,0,0-.75.38.38,0,0,0,0,.75Z"/><path class="cls-2" d="M843.17,91.8a.38.38,0,0,0,0-.75.38.38,0,0,0,0,.75Z"/><path class="cls-2" d="M786.23,46a.38.38,0,0,0,0-.75.38.38,0,0,0,0,.75Z"/><path class="cls-2" d="M768.36,75.06a.38.38,0,0,0,0-.75.38.38,0,0,0,0,.75Z"/><path class="cls-2" d="M789.58,73.94a.38.38,0,0,0,0-.75.38.38,0,0,0,0,.75Z"/><path class="cls-2" d="M1028.51,15.88a.38.38,0,0,0,0-.75.38.38,0,0,0,0,.75Z"/><path class="cls-2" d="M1065.36,15.88a.38.38,0,0,0,0-.75.38.38,0,0,0,0,.75Z"/><path class="cls-2" d="M1106.67,34.86a.38.38,0,0,0,0-.75.38.38,0,0,0,0,.75Z"/><path class="cls-2" d="M1154.68,95.15a.38.38,0,0,0,0-.75.38.38,0,0,0,0,.75Z"/><path class="cls-2" d="M1091,120.83a.38.38,0,0,0,0-.75.38.38,0,0,0,0,.75Z"/><path class="cls-2" d="M989.44,82.87a.38.38,0,0,0,0-.75.38.38,0,0,0,0,.75Z"/><path class="cls-2" d="M857.69,108.55a.38.38,0,0,0,0-.75.38.38,0,0,0,0,.75Z"/><path class="cls-2" d="M910.16,117.48a.38.38,0,0,0,0-.75.38.38,0,0,0,0,.75Z"/><path class="cls-2" d="M1230.61,25.93a.38.38,0,0,0,0-.75.38.38,0,0,0,0,.75Z"/><path class="cls-2" d="M1282,101.85a.38.38,0,0,0,0-.75.38.38,0,0,0,0,.75Z"/><path class="cls-2" d="M1231.72,162.14a.38.38,0,0,0,0-.75.38.38,0,0,0,0,.75Z"/><path class="cls-2" d="M807.44,25.93a.38.38,0,0,0,0-.75.38.38,0,0,0,0,.75Z"/><path class="cls-2" d="M865.5,22.58a.38.38,0,0,0,0-.75.38.38,0,0,0,0,.75Z"/><path class="cls-2" d="M1027.4,184.48a.38.38,0,0,0,0-.75.38.38,0,0,0,0,.75Z"/><path class="cls-2" d="M532.78,126.42a.38.38,0,0,0,0-.75.38.38,0,0,0,0,.75Z"/><path class="cls-2" d="M532.78,41.56a.38.38,0,0,0,0-.75.38.38,0,0,0,0,.75Z"/><path class="cls-2" d="M454.62,63.89a.38.38,0,0,0,0-.75.38.38,0,0,0,0,.75Z"/><path class="cls-2" d="M430.06,56.07a.38.38,0,0,0,0-.75.38.38,0,0,0,0,.75Z"/><path class="cls-2" d="M446.8,30.39a.38.38,0,0,0,0-.75.38.38,0,0,0,0,.75Z"/><path class="cls-2" d="M320.64,24.81a.38.38,0,0,0,0-.75.38.38,0,0,0,0,.75Z"/><path class="cls-2" d="M350.78,37.09a.38.38,0,0,0,0-.75.38.38,0,0,0,0,.75Z"/><path class="cls-2" d="M344.08,75.06a.38.38,0,0,0,0-.75.38.38,0,0,0,0,.75Z"/><path class="cls-2" d="M232.43,114.13a.38.38,0,0,0,0-.75.38.38,0,0,0,0,.75Z"/><path class="cls-2" d="M251.41,103a.38.38,0,0,0,0-.75.38.38,0,0,0,0,.75Z"/><path class="cls-2" d="M230.2,152.1a.38.38,0,0,0,0-.75.38.38,0,0,0,0,.75Z"/><path class="cls-2" d="M289.37,171.08a.38.38,0,0,0,0-.75.38.38,0,0,0,0,.75Z"/><path class="cls-2" d="M121.9,172.19a.38.38,0,0,0,0-.75.38.38,0,0,0,0,.75Z"/><path class="cls-2" d="M133.06,203.46a.38.38,0,0,0,0-.75.38.38,0,0,0,0,.75Z"/><path class="cls-2" d="M97.33,203.46a.38.38,0,0,0,0-.75.38.38,0,0,0,0,.75Z"/><path class="cls-2" d="M34.81,222.44a.38.38,0,0,0,0-.75.38.38,0,0,0,0,.75Z"/><path class="cls-2" d="M50.44,243.65a.38.38,0,0,0,0-.75.38.38,0,0,0,0,.75Z"/><path class="cls-2" d="M108.5,244.77a.38.38,0,0,0,0-.75.38.38,0,0,0,0,.75Z"/><path class="cls-2" d="M176.61,308.41a.38.38,0,0,0,0-.75.38.38,0,0,0,0,.75Z"/><path class="cls-2" d="M182.19,300.59a.38.38,0,0,0,0-.75.38.38,0,0,0,0,.75Z"/><path class="cls-2" d="M190,312.88a.38.38,0,0,0,0-.75.38.38,0,0,0,0,.75Z"/><path class="cls-2" d="M242.48,285a.38.38,0,0,0,0-.75.38.38,0,0,0,0,.75Z"/><path class="cls-2" d="M216.8,250.35a.38.38,0,0,0,0-.75.38.38,0,0,0,0,.75Z"/><path class="cls-2" d="M212.33,286.08a.38.38,0,0,0,0-.75.38.38,0,0,0,0,.75Z"/><path class="cls-2" d="M251.41,382.1a.38.38,0,0,0,0-.75.38.38,0,0,0,0,.75Z"/><path class="cls-2" d="M195.59,419a.38.38,0,0,0,0-.75.38.38,0,0,0,0,.75Z"/><path class="cls-2" d="M255.88,420.06a.38.38,0,0,0,0-.75.38.38,0,0,0,0,.75Z"/><path class="cls-2" d="M29.22,56.07a.38.38,0,0,0,0-.75.38.38,0,0,0,0,.75Z"/><path class="cls-2" d="M65,56.07a.38.38,0,0,0,0-.75.38.38,0,0,0,0,.75Z"/><path class="cls-2" d="M56,122a.38.38,0,0,0,0-.75.38.38,0,0,0,0,.75Z"/><path class="cls-2" d="M27,132a.38.38,0,0,0,0-.75.38.38,0,0,0,0,.75Z"/><path class="cls-2" d="M134.18,38.21a.38.38,0,0,0,0-.75.38.38,0,0,0,0,.75Z"/><path class="cls-2" d="M92.87,86.22a.38.38,0,0,0,0-.75.38.38,0,0,0,0,.75Z"/><path class="cls-2" d="M166.56,103a.38.38,0,0,0,0-.75.38.38,0,0,0,0,.75Z"/><path class="cls-2" d="M222.38,43.79a.38.38,0,0,0,0-.75.38.38,0,0,0,0,.75Z"/><path class="cls-2" d="M190,23.7a.38.38,0,0,0,0-.75.38.38,0,0,0,0,.75Z"/><path class="cls-2" d="M138.64,19.23a.38.38,0,0,0,0-.75.38.38,0,0,0,0,.75Z"/><path class="cls-2" d="M298.31,96.27a.38.38,0,0,0,0-.75.38.38,0,0,0,0,.75Z"/><path class="cls-2" d="M337.39,126.42a.38.38,0,0,0,0-.75.38.38,0,0,0,0,.75Z"/><path class="cls-2" d="M252.53,70.59a.38.38,0,0,0,0-.75.38.38,0,0,0,0,.75Z"/><path class="cls-2" d="M398.79,72.82a.38.38,0,0,0,0-.75.38.38,0,0,0,0,.75Z"/><path class="cls-2" d="M368.65,28.16a.38.38,0,0,0,0-.75.38.38,0,0,0,0,.75Z"/><path class="cls-2" d="M372,140.93a.38.38,0,0,0,0-.75.38.38,0,0,0,0,.75Z"/><path class="cls-2" d="M437.87,156.56a.38.38,0,0,0,0-.75.38.38,0,0,0,0,.75Z"/><path class="cls-2" d="M354.13,194.52a.38.38,0,0,0,0-.75.38.38,0,0,0,0,.75Z"/><path class="cls-2" d="M441.22,288.31a.38.38,0,0,0,0-.75.38.38,0,0,0,0,.75Z"/><path class="cls-2" d="M1545.25,157.44a.38.38,0,0,0,0-.75.38.38,0,0,0,0,.75Z"/><path class="cls-2" d="M1545.25,198a.38.38,0,0,0,0-.75.38.38,0,0,0,0,.75Z"/><path class="cls-2" d="M862.87,164.69a.38.38,0,0,0,0-.75.38.38,0,0,0,0,.75Z"/><path class="cls-2" d="M1064.25,124.12a.38.38,0,0,0,0-.75.38.38,0,0,0,0,.75Z"/><path class="cls-2" d="M696.25,153.1a.38.38,0,0,0,0-.75.38.38,0,0,0,0,.75Z"/><path class="cls-2" d="M897.64,244.37a.38.38,0,0,0,0-.75.38.38,0,0,0,0,.75Z"/><path class="cls-2" d="M820.85,242.92a.38.38,0,0,0,0-.75.38.38,0,0,0,0,.75Z"/><path class="cls-2" d="M1028,300.87a.38.38,0,0,0,0-.75.38.38,0,0,0,0,.75Z"/><path class="cls-2" d="M1107.71,273.35a.38.38,0,0,0,0-.75.38.38,0,0,0,0,.75Z"/><path class="cls-2" d="M1074.39,192.21a.38.38,0,0,0,0-.75.38.38,0,0,0,0,.75Z"/><path class="cls-2" d="M1067.15,241.47a.38.38,0,0,0,0-.75.38.38,0,0,0,0,.75Z"/><path class="cls-2" d="M753.12,94.9a.38.38,0,0,0,0-.75.38.38,0,0,0,0,.75Z"/><path class="cls-2" d="M770.53,101.23a.38.38,0,0,0,0-.75.38.38,0,0,0,0,.75Z"/><path class="cls-2" d="M750,115.47a.38.38,0,0,0,0-.75.38.38,0,0,0,0,.75Z"/><path class="cls-2" d="M719.89,115.47a.38.38,0,0,0,0-.75.38.38,0,0,0,0,.75Z"/><path class="cls-2" d="M896.08,454.68a.38.38,0,0,0,0-.75.38.38,0,0,0,0,.75Z"/><path class="cls-2" d="M916.81,442.09a.38.38,0,0,0,0-.75.38.38,0,0,0,0,.75Z"/><path class="cls-2" d="M929.39,460.6a.38.38,0,0,0,0-.75.38.38,0,0,0,0,.75Z"/><path class="cls-2" d="M997.49,439.87a.38.38,0,0,0,0-.75.38.38,0,0,0,0,.75Z"/><path class="cls-2" d="M967.88,426.55a.38.38,0,0,0,0-.75.38.38,0,0,0,0,.75Z"/><path class="cls-2" d="M1014.46,394.9a.38.38,0,0,0,0-.75.38.38,0,0,0,0,.75Z"/><path class="cls-2" d="M1051,396.64a.38.38,0,0,0,0-.75.38.38,0,0,0,0,.75Z"/><path class="cls-2" d="M1034.75,421a.38.38,0,0,0,0-.75.38.38,0,0,0,0,.75Z"/><path class="cls-2" d="M1067.21,438.37a.38.38,0,0,0,0-.75.38.38,0,0,0,0,.75Z"/><path class="cls-2" d="M1046.92,436.63a.38.38,0,0,0,0-.75.38.38,0,0,0,0,.75Z"/><path class="cls-2" d="M1000.55,461.56a.38.38,0,0,0,0-.75.38.38,0,0,0,0,.75Z"/><path class="cls-2" d="M967.52,458.08a.38.38,0,0,0,0-.75.38.38,0,0,0,0,.75Z"/><path class="cls-2" d="M1071.84,409.39a.38.38,0,0,0,0-.75.38.38,0,0,0,0,.75Z"/><path class="cls-2" d="M929.26,406.49a.38.38,0,0,0,0-.75.38.38,0,0,0,0,.75Z"/><path class="cls-2" d="M1263.27,447.4a.38.38,0,0,0,0-.75.38.38,0,0,0,0,.75Z"/><path class="cls-2" d="M1281.25,447.4a.38.38,0,0,0,0-.75.38.38,0,0,0,0,.75Z"/><path class="cls-2" d="M1304.76,479.9a.38.38,0,0,0,0-.75.38.38,0,0,0,0,.75Z"/><path class="cls-2" d="M1270.88,475.76a.38.38,0,0,0,0-.75.38.38,0,0,0,0,.75Z"/><path class="cls-2" d="M1303.38,435a.38.38,0,0,0,0-.75.38.38,0,0,0,0,.75Z"/><path class="cls-2" d="M1175.47,414.87a.38.38,0,0,0,0-.75.38.38,0,0,0,0,.75Z"/><path class="cls-2" d="M1203.66,418.79a.38.38,0,0,0,0-.75.38.38,0,0,0,0,.75Z"/><path class="cls-2" d="M1130.06,432.88a.38.38,0,0,0,0-.75.38.38,0,0,0,0,.75Z"/><path class="cls-2" d="M1109.7,402.35a.38.38,0,0,0,0-.75.38.38,0,0,0,0,.75Z"/><path class="cls-2" d="M1527.49,471.73a.38.38,0,0,0,0-.75.38.38,0,0,0,0,.75Z"/><path class="cls-2" d="M1393.48,405.25a.38.38,0,0,0,0-.75.38.38,0,0,0,0,.75Z"/><path class="cls-2" d="M1609.79,478.06a.38.38,0,0,0,0-.75.38.38,0,0,0,0,.75Z"/><path class="cls-2" d="M1634.05,466.45a.38.38,0,0,0,0-.75.38.38,0,0,0,0,.75Z"/><path class="cls-2" d="M792.05,446.4a.38.38,0,0,0,0-.75.38.38,0,0,0,0,.75Z"/><path class="cls-2" d="M806.83,425.3a.38.38,0,0,0,0-.75.38.38,0,0,0,0,.75Z"/><path class="cls-2" d="M624.29,442.18a.38.38,0,0,0,0-.75.38.38,0,0,0,0,.75Z"/><path class="cls-2" d="M649.61,455.9a.38.38,0,0,0,0-.75.38.38,0,0,0,0,.75Z"/><path class="cls-2" d="M621.12,453.79a.38.38,0,0,0,0-.75.38.38,0,0,0,0,.75Z"/><path class="cls-2" d="M547.26,463.28a.38.38,0,0,0,0-.75.38.38,0,0,0,0,.75Z"/><path class="cls-2" d="M475.51,459.06a.38.38,0,0,0,0-.75.38.38,0,0,0,0,.75Z"/><path class="cls-2" d="M457.58,432.69a.38.38,0,0,0,0-.75.38.38,0,0,0,0,.75Z"/><path class="cls-2" d="M463.91,404.2a.38.38,0,0,0,0-.75.38.38,0,0,0,0,.75Z"/><path class="cls-2" d="M462.85,369.38a.38.38,0,0,0,0-.75.38.38,0,0,0,0,.75Z"/><path class="cls-2" d="M420.65,449.57a.38.38,0,0,0,0-.75.38.38,0,0,0,0,.75Z"/><path class="cls-2" d="M700.26,370.43a.38.38,0,0,0,0-.75.38.38,0,0,0,0,.75Z"/><path class="cls-2" d="M684.43,382a.38.38,0,0,0,0-.75.38.38,0,0,0,0,.75Z"/></g><g id="sky"><path class="cls-2" d="M1706.34,83.19a.75.75,0,0,0,0-1.5.75.75,0,0,0,0,1.5Z"/><path class="cls-2" d="M1731.66,112a.75.75,0,0,0,0-1.5.75.75,0,0,0,0,1.5Z"/><path class="cls-3" d="M1254.75,340.64H1256a.46.46,0,0,1,.36.17l5.45,6.36,4.66.93H1287s4.66,0,5.59,1.86c0,0,5.59,1.87,0,2.8,0,0-2.75.92-23.74.93a3.6,3.6,0,0,1-1-.13L1255.3,350V349l-2.8-.93v-.93l3.06.76a.41.41,0,0,0,.5-.5l-1.6-6.41A.3.3,0,0,1,1254.75,340.64Z"/><path class="cls-3" d="M375.62,296.24s8.1-12.34,16.61,0c0,0,19.93,3.8.94,8.07,0,0-7.11,3.8-17.55,0C375.62,304.31,355.68,300.52,375.62,296.24Z"/><path class="cls-2" d="M1169.18,288.64a1.5,1.5,0,0,0,0-3,1.5,1.5,0,0,0,0,3Z"/><path class="cls-2" d="M1373.17,249.37a.75.75,0,0,0,0-1.5.75.75,0,0,0,0,1.5Z"/><path class="cls-2" d="M1196.28,233.68a.75.75,0,0,0,0-1.5.75.75,0,0,0,0,1.5Z"/><path class="cls-2" d="M1326.1,285a.75.75,0,0,0,0-1.5.75.75,0,0,0,0,1.5Z"/><path class="cls-2" d="M1413.11,295a.75.75,0,0,0,0-1.5.75.75,0,0,0,0,1.5Z"/><path class="cls-2" d="M1461.61,249.37a.75.75,0,0,0,0-1.5.75.75,0,0,0,0,1.5Z"/><path class="cls-2" d="M1437.36,255.08a.75.75,0,0,0,0-1.5.75.75,0,0,0,0,1.5Z"/><path class="cls-2" d="M1477.31,277.9a.75.75,0,0,0,0-1.5.75.75,0,0,0,0,1.5Z"/><path class="cls-2" d="M1515.82,402a.75.75,0,0,0,0-1.5.75.75,0,0,0,0,1.5Z"/><path class="cls-2" d="M1592.85,335a.75.75,0,0,0,0-1.5.75.75,0,0,0,0,1.5Z"/><path class="cls-2" d="M1321.82,410.57a.75.75,0,0,0,0-1.5.75.75,0,0,0,0,1.5Z"/><path class="cls-2" d="M1435.94,432a.75.75,0,0,0,0-1.5.75.75,0,0,0,0,1.5Z"/><path class="cls-2" d="M993.72,316.42a.75.75,0,0,0,0-1.5.75.75,0,0,0,0,1.5Z"/><path class="cls-2" d="M1008,205.15a.75.75,0,0,0,0-1.5.75.75,0,0,0,0,1.5Z"/><path class="cls-2" d="M776.89,213.71a.75.75,0,0,0,0-1.5.75.75,0,0,0,0,1.5Z"/><path class="cls-2" d="M685.6,292.17a.75.75,0,0,0,0-1.5.75.75,0,0,0,0,1.5Z"/><path class="cls-2" d="M838.23,272.2a.75.75,0,0,0,0-1.5.75.75,0,0,0,0,1.5Z"/><path class="cls-2" d="M958.06,372.05a.75.75,0,0,0,0-1.5.75.75,0,0,0,0,1.5Z"/><path class="cls-2" d="M853.92,419.13a.75.75,0,0,0,0-1.5.75.75,0,0,0,0,1.5Z"/><path class="cls-2" d="M902.42,315a.75.75,0,0,0,0-1.5.75.75,0,0,0,0,1.5Z"/><path class="cls-2" d="M979.46,210.86a.75.75,0,0,0,0-1.5.75.75,0,0,0,0,1.5Z"/><path class="cls-2" d="M812.56,155.22a.75.75,0,0,0,0-1.5.75.75,0,0,0,0,1.5Z"/><path class="cls-2" d="M816.83,179.47a.75.75,0,0,0,0-1.5.75.75,0,0,0,0,1.5Z"/><path class="cls-2" d="M745.51,183.75a.75.75,0,0,0,0-1.5.75.75,0,0,0,0,1.5Z"/><path class="cls-2" d="M1083.59,360.64a.75.75,0,0,0,0-1.5.75.75,0,0,0,0,1.5Z"/><path class="cls-2" d="M544.37,346.38a.75.75,0,0,0,0-1.5.75.75,0,0,0,0,1.5Z"/><path class="cls-2" d="M480.18,212.28a.75.75,0,0,0,0-1.5.75.75,0,0,0,0,1.5Z"/><path class="cls-2" d="M351.8,346.38a.75.75,0,0,0,0-1.5.75.75,0,0,0,0,1.5Z"/><path class="cls-2" d="M259.07,235.11a.75.75,0,0,0,0-1.5.75.75,0,0,0,0,1.5Z"/><path class="cls-2" d="M223.41,335a.75.75,0,0,0,0-1.5.75.75,0,0,0,0,1.5Z"/><path class="cls-2" d="M240.53,346.38a.75.75,0,0,0,0-1.5.75.75,0,0,0,0,1.5Z"/><path class="cls-2" d="M263.35,320.7a.75.75,0,0,0,0-1.5.75.75,0,0,0,0,1.5Z"/><path class="cls-2" d="M286.18,346.38a.75.75,0,0,0,0-1.5.75.75,0,0,0,0,1.5Z"/><path class="cls-2" d="M323.26,367.77a.75.75,0,0,0,0-1.5.75.75,0,0,0,0,1.5Z"/><path class="cls-2" d="M347.52,178.05a.75.75,0,0,0,0-1.5.75.75,0,0,0,0,1.5Z"/><path class="cls-2" d="M457.36,141a.75.75,0,0,0,0-1.5.75.75,0,0,0,0,1.5Z"/><path class="cls-2" d="M501.58,158.08a.75.75,0,0,0,0-1.5.75.75,0,0,0,0,1.5Z"/><path class="cls-2" d="M478.75,162.36a.75.75,0,0,0,0-1.5.75.75,0,0,0,0,1.5Z"/><path class="cls-2" d="M627.11,208a.75.75,0,0,0,0-1.5.75.75,0,0,0,0,1.5Z"/><path class="cls-2" d="M551.51,238a.75.75,0,0,0,0-1.5.75.75,0,0,0,0,1.5Z"/><path class="cls-2" d="M615.7,262.21a.75.75,0,0,0,0-1.5.75.75,0,0,0,0,1.5Z"/><path class="cls-2" d="M580,259.36a.75.75,0,0,0,0-1.5.75.75,0,0,0,0,1.5Z"/><path class="cls-2" d="M614.27,335a.75.75,0,0,0,0-1.5.75.75,0,0,0,0,1.5Z"/><path class="cls-2" d="M617.12,413.42a.75.75,0,0,0,0-1.5.75.75,0,0,0,0,1.5Z"/><path class="cls-2" d="M413.13,397.73a.75.75,0,0,0,0-1.5.75.75,0,0,0,0,1.5Z"/><path class="cls-2" d="M433.11,332.11a.75.75,0,0,0,0-1.5.75.75,0,0,0,0,1.5Z"/><path class="cls-2" d="M274.76,189.46a.75.75,0,0,0,0-1.5.75.75,0,0,0,0,1.5Z"/><path class="cls-2" d="M1086.44,302.15a.75.75,0,0,0,0-1.5.75.75,0,0,0,0,1.5Z"/><path class="cls-2" d="M1153.49,158.08a.75.75,0,0,0,0-1.5.75.75,0,0,0,0,1.5Z"/><path class="cls-2" d="M1293.29,155.22a.75.75,0,0,0,0-1.5.75.75,0,0,0,0,1.5Z"/><path class="cls-2" d="M1304.7,216.56a.75.75,0,0,0,0-1.5.75.75,0,0,0,0,1.5Z"/><path class="cls-2" d="M1414.54,200.87a.75.75,0,0,0,0-1.5.75.75,0,0,0,0,1.5Z"/><path class="cls-2" d="M1107.84,232.26a.75.75,0,0,0,0-1.5.75.75,0,0,0,0,1.5Z"/><path class="cls-2" d="M1129.24,232.26a.75.75,0,0,0,0-1.5.75.75,0,0,0,0,1.5Z"/><path class="cls-2" d="M1115,236.53a.75.75,0,0,0,0-1.5.75.75,0,0,0,0,1.5Z"/><path class="cls-2" d="M1587.15,192.31a.75.75,0,0,0,0-1.5.75.75,0,0,0,0,1.5Z"/><path class="cls-2" d="M598.58,240.14a1.5,1.5,0,0,0,0-3,1.5,1.5,0,0,0,0,3Z"/><path class="cls-2" d="M304.72,427a1.5,1.5,0,0,0,0-3,1.5,1.5,0,0,0,0,3Z"/><path class="cls-2" d="M327.54,231.58a1.5,1.5,0,0,0,0-3,1.5,1.5,0,0,0,0,3Z"/><path class="cls-2" d="M254.79,201.62a1.5,1.5,0,0,0,0-3,1.5,1.5,0,0,0,0,3Z"/><path class="cls-2" d="M1043.65,367.1a1.5,1.5,0,0,0,0-3,1.5,1.5,0,0,0,0,3Z"/><path class="cls-2" d="M565.77,412.74a1.5,1.5,0,0,0,0-3,1.5,1.5,0,0,0,0,3Z"/><path class="cls-2" d="M942.37,238.71a1.5,1.5,0,0,0,0-3,1.5,1.5,0,0,0,0,3Z"/><path class="cls-2" d="M948.07,437a1.5,1.5,0,0,0,0-3,1.5,1.5,0,0,0,0,3Z"/><path class="cls-2" d="M1353.2,465.53a1.5,1.5,0,0,0,0-3,1.5,1.5,0,0,0,0,3Z"/><path class="cls-2" d="M1560,337.14a1.5,1.5,0,0,0,0-3,1.5,1.5,0,0,0,0,3Z"/><path class="cls-2" d="M1505.84,208.75a1.5,1.5,0,0,0,0-3,1.5,1.5,0,0,0,0,3Z"/><path class="cls-2" d="M732.67,384.21a1.5,1.5,0,0,0,0-3,1.5,1.5,0,0,0,0,3Z"/><path class="cls-2" d="M1651.34,280.08a1.5,1.5,0,0,0,0-3,1.5,1.5,0,0,0,0,3Z"/><path class="cls-2" d="M1380.3,338.57a1.5,1.5,0,0,0,0-3,1.5,1.5,0,0,0,0,3Z"/><path class="cls-2" d="M1209.18,393.91a.75.75,0,0,0,0-1.5.75.75,0,0,0,0,1.5Z"/><path class="cls-2" d="M706.27,428.43a.75.75,0,0,0,0-1.5.75.75,0,0,0,0,1.5Z"/><path class="cls-2" d="M681,422.68a.75.75,0,0,0,0-1.5.75.75,0,0,0,0,1.5Z"/><path class="cls-2" d="M1551,445.7a.75.75,0,0,0,0-1.5.75.75,0,0,0,0,1.5Z"/><path class="cls-2" d="M937.58,141.88a.75.75,0,0,0,0-1.5.75.75,0,0,0,0,1.5Z"/><path class="cls-2" d="M1056.12,102.75a.75.75,0,0,0,0-1.5.75.75,0,0,0,0,1.5Z"/><path class="cls-2" d="M197.6,87.79a.75.75,0,0,0,0-1.5.75.75,0,0,0,0,1.5Z"/><path class="cls-2" d="M308.08,76.28a.75.75,0,0,0,0-1.5.75.75,0,0,0,0,1.5Z"/><path class="cls-2" d="M264.35,131.52a.75.75,0,0,0,0-1.5.75.75,0,0,0,0,1.5Z"/><path class="cls-2" d="M397.85,138.43a.75.75,0,0,0,0-1.5.75.75,0,0,0,0,1.5Z"/><path class="cls-2" d="M811,88.94a.75.75,0,0,0,0-1.5.75.75,0,0,0,0,1.5Z"/><path class="cls-2" d="M679.8,118.86a.75.75,0,0,0,0-1.5.75.75,0,0,0,0,1.5Z"/><path class="cls-2" d="M1058.42,139.58a.75.75,0,0,0,0-1.5.75.75,0,0,0,0,1.5Z"/><path class="cls-2" d="M1243.7,101.6a.75.75,0,0,0,0-1.5.75.75,0,0,0,0,1.5Z"/><path class="cls-2" d="M1175.81,105.05a.75.75,0,0,0,0-1.5.75.75,0,0,0,0,1.5Z"/><path class="cls-2" d="M1220.69,113.11a.75.75,0,0,0,0-1.5.75.75,0,0,0,0,1.5Z"/><path class="cls-2" d="M1435.89,130.37a.75.75,0,0,0,0-1.5.75.75,0,0,0,0,1.5Z"/><path class="cls-2" d="M1586.65,143.78a1.5,1.5,0,0,0,0-3,1.5,1.5,0,0,0,0,3Z"/><path class="cls-2" d="M1540.62,95.45a1.5,1.5,0,0,0,0-3,1.5,1.5,0,0,0,0,3Z"/><path class="cls-2" d="M1330,115a1.5,1.5,0,0,0,0-3,1.5,1.5,0,0,0,0,3Z"/><path class="cls-2" d="M994,115a1.5,1.5,0,0,0,0-3,1.5,1.5,0,0,0,0,3Z"/><path class="cls-2" d="M744.25,142.63a1.5,1.5,0,0,0,0-3,1.5,1.5,0,0,0,0,3Z"/><path class="cls-2" d="M172.29,151.84a1.5,1.5,0,0,0,0-3,1.5,1.5,0,0,0,0,3Z"/><path class="cls-2" d="M1651.1,166.8a1.5,1.5,0,0,0,0-3,1.5,1.5,0,0,0,0,3Z"/><path class="cls-2" d="M1615.42,105.05a.75.75,0,0,0,0-1.5.75.75,0,0,0,0,1.5Z"/><path class="cls-2" d="M1637.29,231.64a.75.75,0,0,0,0-1.5.75.75,0,0,0,0,1.5Z"/><path class="cls-2" d="M1563.63,291.49a.75.75,0,0,0,0-1.5.75.75,0,0,0,0,1.5Z"/><circle class="cls-4" cx="691.5" cy="237.5" r="27.5"/><path class="cls-2" d="M1382.45,155.45a.38.38,0,0,0,0-.75.38.38,0,0,0,0,.75Z"/><path class="cls-2" d="M1504.16,144.28a.38.38,0,0,0,0-.75.38.38,0,0,0,0,.75Z"/><path class="cls-2" d="M1485.17,84a.38.38,0,0,0,0-.75.38.38,0,0,0,0,.75Z"/><path class="cls-2" d="M1380.22,57.19a.38.38,0,0,0,0-.75.38.38,0,0,0,0,.75Z"/><path class="cls-2" d="M1186,47.52a.75.75,0,0,0,0-1.5.75.75,0,0,0,0,1.5Z"/><path class="cls-2" d="M1069.83,39.7a.75.75,0,0,0,0-1.5.75.75,0,0,0,0,1.5Z"/><path class="cls-2" d="M1091,75.43a.75.75,0,0,0,0-1.5.75.75,0,0,0,0,1.5Z"/><path class="cls-2" d="M905.7,74.31a.75.75,0,0,0,0-1.5.75.75,0,0,0,0,1.5Z"/><path class="cls-2" d="M882.25,132.37a.75.75,0,0,0,0-1.5.75.75,0,0,0,0,1.5Z"/><path class="cls-2" d="M969.34,91.06a.75.75,0,0,0,0-1.5.75.75,0,0,0,0,1.5Z"/><path class="cls-2" d="M955.94,36.35a.75.75,0,0,0,0-1.5.75.75,0,0,0,0,1.5Z"/><path class="cls-2" d="M556.22,38.59a.75.75,0,0,0,0-1.5.75.75,0,0,0,0,1.5Z"/><path class="cls-2" d="M579.67,46.4a.75.75,0,0,0,0-1.5.75.75,0,0,0,0,1.5Z"/><path class="cls-2" d="M580.79,83.25a.75.75,0,0,0,0-1.5.75.75,0,0,0,0,1.5Z"/><path class="cls-2" d="M502.63,90a.75.75,0,0,0,0-1.5.75.75,0,0,0,0,1.5Z"/><path class="cls-2" d="M555.11,160.29a.75.75,0,0,0,0-1.5.75.75,0,0,0,0,1.5Z"/><path class="cls-2" d="M722.59,46.4a.75.75,0,0,0,0-1.5.75.75,0,0,0,0,1.5Z"/><path class="cls-2" d="M607.58,133.49a.75.75,0,0,0,0-1.5.75.75,0,0,0,0,1.5Z"/><path class="cls-2" d="M406.61,26.3a.75.75,0,0,0,0-1.5.75.75,0,0,0,0,1.5Z"/><path class="cls-2" d="M378.7,82.13a.75.75,0,0,0,0-1.5.75.75,0,0,0,0,1.5Z"/><path class="cls-2" d="M464.67,50.87a.75.75,0,0,0,0-1.5.75.75,0,0,0,0,1.5Z"/><path class="cls-2" d="M464.67,106.69a.75.75,0,0,0,0-1.5.75.75,0,0,0,0,1.5Z"/><path class="cls-2" d="M261.46,16.25a.75.75,0,0,0,0-1.5.75.75,0,0,0,0,1.5Z"/><path class="cls-2" d="M297.19,132.37a.75.75,0,0,0,0-1.5.75.75,0,0,0,0,1.5Z"/><path class="cls-2" d="M239.13,73.2a.75.75,0,0,0,0-1.5.75.75,0,0,0,0,1.5Z"/><path class="cls-2" d="M399.91,175.92a.75.75,0,0,0,0-1.5.75.75,0,0,0,0,1.5Z"/><path class="cls-2" d="M162.09,282a.75.75,0,0,0,0-1.5.75.75,0,0,0,0,1.5Z"/><path class="cls-2" d="M114.08,327.77a.75.75,0,0,0,0-1.5.75.75,0,0,0,0,1.5Z"/><path class="cls-2" d="M168.79,343.4a.75.75,0,0,0,0-1.5.75.75,0,0,0,0,1.5Z"/><path class="cls-2" d="M163.21,385.83a.75.75,0,0,0,0-1.5.75.75,0,0,0,0,1.5Z"/><path class="cls-2" d="M128.59,303.2a.75.75,0,0,0,0-1.5.75.75,0,0,0,0,1.5Z"/><path class="cls-2" d="M216.8,394.76a.75.75,0,0,0,0-1.5.75.75,0,0,0,0,1.5Z"/><path class="cls-2" d="M80.58,254.07a.75.75,0,0,0,0-1.5.75.75,0,0,0,0,1.5Z"/><path class="cls-2" d="M186.65,266.36a.75.75,0,0,0,0-1.5.75.75,0,0,0,0,1.5Z"/><path class="cls-2" d="M82.82,205a.75.75,0,0,0,0-1.5.75.75,0,0,0,0,1.5Z"/><path class="cls-2" d="M120.78,138a.75.75,0,0,0,0-1.5.75.75,0,0,0,0,1.5Z"/><path class="cls-2" d="M153.16,226.16a.75.75,0,0,0,0-1.5.75.75,0,0,0,0,1.5Z"/><path class="cls-2" d="M39.27,200.48a.75.75,0,0,0,0-1.5.75.75,0,0,0,0,1.5Z"/><path class="cls-2" d="M25.87,101.11a.75.75,0,0,0,0-1.5.75.75,0,0,0,0,1.5Z"/><path class="cls-2" d="M69.42,150.24a.75.75,0,0,0,0-1.5.75.75,0,0,0,0,1.5Z"/><path class="cls-2" d="M121.9,79.9a.75.75,0,0,0,0-1.5.75.75,0,0,0,0,1.5Z"/><path class="cls-2" d="M56,40.82a.75.75,0,0,0,0-1.5.75.75,0,0,0,0,1.5Z"/><path class="cls-2" d="M46,68.73a.75.75,0,0,0,0-1.5.75.75,0,0,0,0,1.5Z"/><path class="cls-2" d="M118.55,48.63a.75.75,0,0,0,0-1.5.75.75,0,0,0,0,1.5Z"/><path class="cls-2" d="M176.61,37.47a.75.75,0,0,0,0-1.5.75.75,0,0,0,0,1.5Z"/><path class="cls-2" d="M176.61,73.2a.75.75,0,0,0,0-1.5.75.75,0,0,0,0,1.5Z"/><path class="cls-2" d="M69.42,18.49a.75.75,0,0,0,0-1.5.75.75,0,0,0,0,1.5Z"/><path class="cls-2" d="M9.13,28.54a.75.75,0,0,0,0-1.5.75.75,0,0,0,0,1.5Z"/><path class="cls-2" d="M11.36,168.1a.75.75,0,0,0,0-1.5.75.75,0,0,0,0,1.5Z"/><path class="cls-2" d="M133.06,172.57a.75.75,0,0,0,0-1.5.75.75,0,0,0,0,1.5Z"/><path class="cls-2" d="M844.29,46.4a.75.75,0,0,0,0-1.5.75.75,0,0,0,0,1.5Z"/><path class="cls-2" d="M671.23,67.62a.75.75,0,0,0,0-1.5.75.75,0,0,0,0,1.5Z"/><path class="cls-2" d="M1326.63,20.72a.75.75,0,0,0,0-1.5.75.75,0,0,0,0,1.5Z"/><path class="cls-2" d="M1326.63,79.9a.75.75,0,0,0,0-1.5.75.75,0,0,0,0,1.5Z"/><path class="cls-2" d="M1258.52,47.52a.75.75,0,0,0,0-1.5.75.75,0,0,0,0,1.5Z"/><path class="cls-2" d="M1482.94,10.67a.75.75,0,0,0,0-1.5.75.75,0,0,0,0,1.5Z"/><path class="cls-2" d="M1557.75,40.82a.75.75,0,0,0,0-1.5.75.75,0,0,0,0,1.5Z"/><path class="cls-2" d="M1523.14,40.82a.75.75,0,0,0,0-1.5.75.75,0,0,0,0,1.5Z"/><path class="cls-2" d="M1539.88,21.84a.75.75,0,0,0,0-1.5.75.75,0,0,0,0,1.5Z"/><path class="cls-2" d="M1657.12,20.72a.75.75,0,0,0,0-1.5.75.75,0,0,0,0,1.5Z"/><path class="cls-2" d="M1663.82,71a.75.75,0,0,0,0-1.5.75.75,0,0,0,0,1.5Z"/><path class="cls-2" d="M1602.41,58.68a.75.75,0,0,0,0-1.5.75.75,0,0,0,0,1.5Z"/><path class="cls-2" d="M1728.58,334.46a.75.75,0,0,0,0-1.5.75.75,0,0,0,0,1.5Z"/><path class="cls-2" d="M1623.62,388.06a.75.75,0,0,0,0-1.5.75.75,0,0,0,0,1.5Z"/><path class="cls-2" d="M1680.57,392.52a.75.75,0,0,0,0-1.5.75.75,0,0,0,0,1.5Z"/><path class="cls-2" d="M1640.37,445a.75.75,0,0,0,0-1.5.75.75,0,0,0,0,1.5Z"/><path class="cls-2" d="M1605.76,456.17a.75.75,0,0,0,0-1.5.75.75,0,0,0,0,1.5Z"/><path class="cls-2" d="M1586.78,422.67a.75.75,0,0,0,0-1.5.75.75,0,0,0,0,1.5Z"/><path class="cls-2" d="M1668.28,354.56a.75.75,0,0,0,0-1.5.75.75,0,0,0,0,1.5Z"/><path class="cls-2" d="M1746.44,274.17a.75.75,0,0,0,0-1.5.75.75,0,0,0,0,1.5Z"/><path class="cls-2" d="M1694,225.05a.75.75,0,0,0,0-1.5.75.75,0,0,0,0,1.5Z"/><path class="cls-2" d="M1782.17,186a.75.75,0,0,0,0-1.5.75.75,0,0,0,0,1.5Z"/><path class="cls-2" d="M1823.48,230.63a.75.75,0,0,0,0-1.5.75.75,0,0,0,0,1.5Z"/><path class="cls-2" d="M1784.4,297.62a.75.75,0,0,0,0-1.5.75.75,0,0,0,0,1.5Z"/><path class="cls-2" d="M1752,227.28a.75.75,0,0,0,0-1.5.75.75,0,0,0,0,1.5Z"/><path class="cls-2" d="M1708.48,143.54a.75.75,0,0,0,0-1.5.75.75,0,0,0,0,1.5Z"/><path class="cls-2" d="M1783.29,92.18a.75.75,0,0,0,0-1.5.75.75,0,0,0,0,1.5Z"/><path class="cls-2" d="M1661.59,101.11a.75.75,0,0,0,0-1.5.75.75,0,0,0,0,1.5Z"/><path class="cls-2" d="M1714.06,31.89a.75.75,0,0,0,0-1.5.75.75,0,0,0,0,1.5Z"/><path class="cls-2" d="M1857,115.63a.75.75,0,0,0,0-1.5.75.75,0,0,0,0,1.5Z"/><path class="cls-2" d="M1836.88,168.1a.75.75,0,0,0,0-1.5.75.75,0,0,0,0,1.5Z"/><path class="cls-2" d="M1775.47,133.49a.75.75,0,0,0,0-1.5.75.75,0,0,0,0,1.5Z"/><path class="cls-2" d="M1816.78,58.68a.75.75,0,0,0,0-1.5.75.75,0,0,0,0,1.5Z"/><path class="cls-2" d="M1769.89,23a.75.75,0,0,0,0-1.5.75.75,0,0,0,0,1.5Z"/><path class="cls-2" d="M1836.88,62.78a1.5,1.5,0,0,0,0-3,1.5,1.5,0,0,0,0,3Z"/><path class="cls-2" d="M1815.67,243.66a1.5,1.5,0,0,0,0-3,1.5,1.5,0,0,0,0,3Z"/><path class="cls-2" d="M1806.73,243.66a1.5,1.5,0,0,0,0-3,1.5,1.5,0,0,0,0,3Z"/><path class="cls-2" d="M1795.57,258.17a1.5,1.5,0,0,0,0-3,1.5,1.5,0,0,0,0,3Z"/><path class="cls-2" d="M1651.54,388.81a1.5,1.5,0,0,0,0-3,1.5,1.5,0,0,0,0,3Z"/><path class="cls-2" d="M1718.53,370.94a1.5,1.5,0,0,0,0-3,1.5,1.5,0,0,0,0,3Z"/><path class="cls-2" d="M1489.64,429a1.5,1.5,0,0,0,0-3,1.5,1.5,0,0,0,0,3Z"/><path class="cls-2" d="M1437.16,388.81a1.5,1.5,0,0,0,0-3,1.5,1.5,0,0,0,0,3Z"/><path class="cls-2" d="M1389.15,34.87a1.5,1.5,0,0,0,0-3,1.5,1.5,0,0,0,0,3Z"/><path class="cls-2" d="M1016.23,53.85a1.5,1.5,0,0,0,0-3,1.5,1.5,0,0,0,0,3Z"/><path class="cls-2" d="M1146.87,18.12a1.5,1.5,0,0,0,0-3,1.5,1.5,0,0,0,0,3Z"/><path class="cls-2" d="M1202.69,60.55a1.5,1.5,0,0,0,0-3,1.5,1.5,0,0,0,0,3Z"/><path class="cls-2" d="M1117.84,97.39a1.5,1.5,0,0,0,0-3,1.5,1.5,0,0,0,0,3Z"/><path class="cls-2" d="M748.27,34.87a1.5,1.5,0,0,0,0-3,1.5,1.5,0,0,0,0,3Z"/><path class="cls-2" d="M728.17,76.18a1.5,1.5,0,0,0,0-3,1.5,1.5,0,0,0,0,3Z"/><path class="cls-2" d="M593.07,53.85a1.5,1.5,0,0,0,0-3,1.5,1.5,0,0,0,0,3Z"/><path class="cls-2" d="M663.41,22.59a1.5,1.5,0,0,0,0-3,1.5,1.5,0,0,0,0,3Z"/><path class="cls-2" d="M410,97.39a1.5,1.5,0,0,0,0-3,1.5,1.5,0,0,0,0,3Z"/><path class="cls-2" d="M90.63,285a1.5,1.5,0,0,0,0-3,1.5,1.5,0,0,0,0,3Z"/><path class="cls-2" d="M78.35,100.74a1.5,1.5,0,0,0,0-3,1.5,1.5,0,0,0,0,3Z"/><path class="cls-2" d="M262.58,48.27a1.5,1.5,0,0,0,0-3,1.5,1.5,0,0,0,0,3Z"/><path class="cls-2" d="M163.21,341.91a1.5,1.5,0,0,0,0-3,1.5,1.5,0,0,0,0,3Z"/><path class="cls-2" d="M14.71,202.35a1.5,1.5,0,0,0,0-3,1.5,1.5,0,0,0,0,3Z"/><path class="cls-2" d="M1727.46,20.35a1.5,1.5,0,0,0,0-3,1.5,1.5,0,0,0,0,3Z"/></g><g id="chicago"><path class="cls-5" d="M1503.38,487.41v6.19h-3.94v6.19h-6.75V455.91h-15.75v2.82h-3.38V457h-10.12V452h-16.32l-3.93,1.68V457h-3.94v1.69h-1.69l-5.62-2.25v-1.69h-7.88v1.69l-9,2.25v32.62h-3.37V488h-6.75v-2.82L1401,484V466.6h-9.56l-1.69-24.75h-5.06V403.6h-1.13v28.69H1383v9.56h-8.44v-9h-1.12V405.29h-1.13v27.56h-.56v9h-3.94L1363,485l-10.94-.4v6.75h-2.25V479l-2.81-1.69h-24.19v2.25H1320V484h-9.56v19.12h-4.5v1.69h-2.25V482.91h-3.94v-5.06l-5.06-6.19h-3.38l-4.5,5.07v4.5h-3.93v2.25h-6.19v3.93l-1.69-2.25V473.35h-1.12v11.81l-1.69,2.82v9h-1.13V493h-3.94V435.66H1257V426.1l-10.69-.56v-1.69l-2.81-1.12-9,.56v2.81l-7.88,1.13-8.43-2.25-38.81,2.25v9l-2.82.56V502.6h-4.5V379.41l-9.56-2.25-7.31-2.81L1141.12,376v2.25l-7.31,1.12V490.79h-3.37V493h-3.94v-49.5l-4.5-11.81-8.44-11.82v-8.43h-1.68v8.43L1105.69,430l-6.19,13.5v28.69h-5.06V416h-1.13v-8.44h-4.5V383.91h-1.12v23.63h-10.13V412h-3.94v56.81h-14.06v4.5l-11.81-1.12v-1.69H1041v2.25h-6.75v45.56H1032V490.79l-14.63-16.88h-1.68l1.12,11.25h-1.12l-1.13-11.25h-1.12l-10.13,15.75v-1.12H991.5v-1.13h-7.31V463.79H969v3.94l-4.5,1.68H960v4.5H929.62l.57,2.82-5.06,5.62v4.5h-2v-7.59l-4.79-4.78h-6.75v-6.75H885.75V511.6h-4.5V515H879v-85.5h-3.94v-6.19h-2.25l-17.43,2.81v28.13h-2.82v5.62h-6.75v11.81h-3.37v-7.87l-18-1.69-3.38-3.37H803.63V461l-19.13.56c-5.06-9-15.75-10.13-15.75-10.13V435.66l-8.44-1.12-29.81,3.94V484h-5.62V472.23h-5.63v-3.38l-16.31-1.12v-22.5l-34.88-3.38-15.18,2.81v37.13h-3.94v-5.06h-3.38V475.6h-4.5v1.13h-6.19v-6.19h-1.68v-5.63h-7.32l-19.12,3.38V443.54h-3.94v-3.38h-1.12v-2.25h-3.38V421.6h-.56v16.31h-1.13V421.6h-.56V439h-6.75v-1.13h-1.12V423.29h-1.13v14.62h-1.12V423.29h-1.13v15.19h-1.12v1.12H582v3.94h-5.06V471.1h-1.13v21.38l-1.69-1.69V475.6h-1.68V470H542.62V493.6h-7.87v4.5h-6.19V493h-1.12V439h-5.06V397.41h-3.94v-2.25h-5.06V362h-2.82V344.54h-1.12v6.75l-2.82-1.13V323.73H505.5v19.12h-1.69v16.31h-1.69v-5.62L501,352.41V333.85h-.56V323.16h-1.13v19.13h-.56V353h-2.81v-8.44h-1.13V362L492,363.1v32.63h-4.5V439.6h-5.63v55.69H462.19V462.1h-6.75V435.66h-1.69v-8.43H451.5V425h-3.38V421H438V425h-2.81l-2.25,2.25v2.25h-2.25V461h-3.38v9.56l-16.87,3.37v11.82H400.31V488H384v79.87H1509V487.41ZM497.62,359.73l-1.12.56V354.1h1.12Zm11.82,1.12-2.25-1.12v-7.32l2.25.57Z"/><polyline class="cls-5" points="1506 476 1529 476 1529 485 1540 485 1540 527 1544 527 1544 471 1561 465 1587 465 1587 568 1506 568"/><polyline class="cls-5" points="388.5 445.5 384.5 445.5 384.5 443.5 358.5 443.5 358.5 461.5 338.5 461.5 338.5 458.5 306.5 458.5 306.5 559.5 303.5 559.5 303.5 447.5 263.5 447.5 263.5 453.5 260.5 453.5 260.5 587.5 388.5 587.5"/><polyline class="cls-5" points="1578 490 1634 490 1634 550 1575 550"/><rect class="cls-5" x="242" y="463" width="26" height="49"/></g><g id="mountains"><path class="cls-6" d="M1350,616.08l118,11s84-79,83-85-75.17-30.3-75.17-30.3c-1.61.3-3.58-1.86-5-2.42-1.67-.67-3.38-.73-5.11-1.26-1.56-.48-3.08-1.05-4.66-1.53-.86-.26-1.71-.22-2.56-.48-1.14-.33-2.06-1.12-3.31-1.38a23,23,0,0,1-4.69-1.18,6.86,6.86,0,0,0-2.78-.91,11.82,11.82,0,0,1-3.23-.55c-2.06-.67-4-1.21-6.07-1.72s-4.22-1.7-6.48-1.81c-4.48-.22-9.15-.14-13.64,0-1.06,0-2,.45-3,.55s-1.94-.08-2.9,0c-1.43.06-2.78.51-4.2.55s-2.75-.12-4.11,0c-4.79.26-9.2,2.65-13.74,4-1.93.56-4.22.74-6,1.62-.85.43-1.64.76-2.52,1.13-1.26.54-2.22,1.54-3.42,2.19-3.65,2-5.82,5.18-8.67,8a86.54,86.54,0,0,0-6.36,7c-.84,1.05-1.63,2.13-2.54,3.13-1.1,1.21-1.81.9-3.51.87-3.32-.06-5.41,2-8.17,3.44-1.21-.65-2.31-2-3.44-2.91a34.52,34.52,0,0,0-3.8-2.55c-2.26-1.34-4.89-3-7.66-2.59-1.66.26-3.44,1.42-5,2.09-1,.44-2.59,1.38-3.73,1.34-1.87-.07-2.69-2.17-4.22-2.94a20.1,20.1,0,0,0-4.4-1.09c-6.55-1.52-13.51-.89-20.2-.89-8.25,0-16.49,0-24.74,0a48.56,48.56,0,0,1-12-1.54,52.47,52.47,0,0,0-12.77-1.51h-16c-2.25,0-5.37-.48-7.59.2-1,.3-1.9.91-2.88,1.24-1.16.38-2.39.51-3.55.89-2,.62-3.81,1.54-5.72,2.27a22.32,22.32,0,0,0-3,1.08c-.76.42-1.42,1-2.19,1.45a17,17,0,0,0-2.49,1.51,13.37,13.37,0,0,1-1.87,1.58c-2.19,1.18-5.37.31-7.77.71-3.15.53-6.47-.26-9.6.37a28.71,28.71,0,0,1-6.09.4c-3.08,0-6.11.57-9.16.5a22.37,22.37,0,0,0-5.08.64c-2.37.5-4.84.51-7.27.89-3.56.56-7.15.86-10.7,1.53-3,.56-5.9,1.42-8.9,1.91-4.86.78-9.54,2.63-14.35,3.58a10.18,10.18,0,0,1-6.14-.9c-1.36-.62-2.62-1.87-4.15-2l-.19.39c-.87-1-6.43-4.46-7.55-5.08a32.81,32.81,0,0,0-3.33-2.06c-1.18-.5-2.15-1.27-3.31-1.8a31.85,31.85,0,0,0-4.55-1.2c-.54-.16-.9-.69-1.41-.84a6.13,6.13,0,0,0-2-.09c-1.39,0-2.62-.45-4-.54-3.16-.19-6.42,0-9.6,0h-7.26a32.35,32.35,0,0,1-3.55,0c-1.56-.17-3-1-4.57-1a36.46,36.46,0,0,1-7-1.12,15.4,15.4,0,0,0-3.56-.91c-2.48-.06-5,0-7.47,0a7.12,7.12,0,0,0-3.83.62c-1.61.84-3.23,1.67-4.87,2.44-3.4,1.61-6.91,2.26-10.54,3.17a12.86,12.86,0,0,1-4.34.42c-1.67-.15-3.3-1.16-5-1.51a47.59,47.59,0,0,0-9.91-1.07,28.17,28.17,0,0,0-5.51.39c-1.85.36-2.83,0-4.15,1.62a24.76,24.76,0,0,1-2.94,3.21,44.71,44.71,0,0,0-3.56,3.85c-.51.55-1.13,1-1.63,1.57a27.89,27.89,0,0,1-1.92,2.52,4.69,4.69,0,0,1-3.19,1.1c-1.29-.07-2.18-1-3.39-1.54s-2.33-1.27-3.55-1.93c-1.67-.9-3.57-1.37-5.3-2.17a31.41,31.41,0,0,0-12.59-3,19.47,19.47,0,0,0-9.75,2.84,3.9,3.9,0,0,0-1.54,1.6,8.87,8.87,0,0,1-.77,1.69,6.28,6.28,0,0,1-2.63,1.58c-2.06.7-4.34.8-6.25,1.93-.84.49-1.27,1.35-2,1.94-1.05.89-2.29,1.2-3.4,2-1.55,1.16-3.71,4.25-5.8,4.21l1,.51c-1.14-.62-1.89-1.62-3-2.17s-2.08-.74-3.07-1.26a5.77,5.77,0,0,0-2.14-.62c-1.43-.22-2.65-.94-4.08-1S912,544.9,911,546a12.74,12.74,0,0,1-2.82,2.52,29.94,29.94,0,0,1-3.43,1.76c-1.26.62-2.34,1.49-3.56,2.18-4.79,2.69-9.71,4.82-13.73,8.59-.92.86-1.54,1.79-2.54,2.59a27.85,27.85,0,0,1-3.68,2.52,26.66,26.66,0,0,1-8.64,2.95,51.09,51.09,0,0,1-9.5.62c-3.11,0-6.23.06-9.34,0a16.56,16.56,0,0,1-4.15-.93,17.65,17.65,0,0,1-2.4-.39,12.73,12.73,0,0,1-1.93-1.25c-1.35-.84-2.84-1.42-4.19-2.28a16,16,0,0,1-3.08-2.34c-1.09-1.24-1.07-3.14-2-4.43-.63-.87-1.8-1.37-2.59-2.11-1.07-1-2.17-2.56-3.67-3a7.26,7.26,0,0,0-1.92,0c-1.49-.11-2.52-1.47-3.59-2.37-1.32-1.09-2.51-2.3-3.91-3.29a15.81,15.81,0,0,0-2.39-1.71,16.49,16.49,0,0,0-2-.41c-1.49-.49-2.94-1.6-4.42-2.22s-3-1.34-4.59-1.89c-2.84-1-5.71-2-8.52-3a15.51,15.51,0,0,0-4.66-.89,27.72,27.72,0,0,1-4-.89c-3.21-.76-5.43-3.64-8.74-3.71a21.08,21.08,0,0,0-5,.12c-.53.12-1,.4-1.53.55-.77.23-2.15.17-2.67.87l-.51-.5c-1.22-1.21-2.61-2.14-3.83-3.31a11.31,11.31,0,0,0-3.39-2.44c-1.33-.54-3-.39-4.22-1.14a5.73,5.73,0,0,1-1.52-1.76,11.69,11.69,0,0,0-2.55-2.41,100.83,100.83,0,0,0-10.13-6.7c-2.76-1.72-4.8-4-8.12-4.58a7.45,7.45,0,0,0-4.39.45c-1.53.77-3.18,1.16-4.78,1.8s-2.89,1.32-4.37,1.92a12,12,0,0,1-5.1.87,25.87,25.87,0,0,1-3,0c-.76-.09-1.38-.46-2.12-.56-2.14-.31-4.38-.19-6.53-.6-4.68-.89-9.38-2.07-14-3.33-3.75-1-7.53-2.68-11.43-2.65-3.7,0-7.52-.32-11.21,0-2.16.17-4,1.31-6.08,1.82-2.91.73-6.07.5-9,1.12-2.58.53-5.18.92-7.75,1.41a36.51,36.51,0,0,1-6.86.25,33.33,33.33,0,0,1-4.58,0c-1.59-.24-2.84-1.25-4.25-1.95a12.9,12.9,0,0,0-3-.82c-2.4-.56-4.23-.89-6.26-2.3-2.22-1.53-4.93-2.2-7.38-3.33-2-.9-3.9-1.85-5.86-2.78a41.53,41.53,0,0,1-5.88-2.77c-1.91-1.29-2.91-3.39-4.84-4.76-.71-.5-1.29-1.09-2-1.62-1.27-1-3-1.3-4.41-2-2.35-1.2-4.77-2.83-7.45-3.06-1.48-.13-2.88-.51-4.37-.51a8,8,0,0,1-2.29-.24c-2.64-.71-5.89-.26-8.63-.26-2.55,0-5.4-.37-7.91.12-4.5.89-7.36,5.73-11.85,6.9-1.17.3-2.4,0-3.57.14a8.32,8.32,0,0,0-2.83,1,17.15,17.15,0,0,0-3.23,2c-.63.56-1.06,1.49-2,1.53-2.23,0-5,.4-7.13-.11a11.33,11.33,0,0,0-1.91-.4,5,5,0,0,1-1.14-.1,6.1,6.1,0,0,1-1.49-.9c-.65-.43-1.48-.71-2.09-1.13a12.12,12.12,0,0,1-1.6-1.82,6.85,6.85,0,0,0-2.44-1.53,38.83,38.83,0,0,0-4.11-1.52,35.31,35.31,0,0,0-9-1.66,16.25,16.25,0,0,1-2.7-.08c-.83-.17-1.58-.65-2.4-.82a18,18,0,0,0-3.67-.1h-9.9a33.68,33.68,0,0,1-11.85-2.15c-3.48-1.24-6.77-3-10.2-4.35a26.64,26.64,0,0,0-5.07-1.25c-1.39-.27-2.78-.24-4.17-.5-1.57-.3-3.2-.48-4.74-.9-2.07-.55-2.88-1.92-4.54-3.1-1.5-1.06-3.41-1-5-1.85a15.83,15.83,0,0,1-4.1-3.07,22.68,22.68,0,0,1-3.52-4.19c-1.15-2.16-3-3.33-5-4.6a44.06,44.06,0,0,1-4.71-3c-.35-.29-.48-.69-.91-.92a12.46,12.46,0,0,0-3.08-.47,36.36,36.36,0,0,0-14.25.24,31.91,31.91,0,0,0-6.68,2,45.39,45.39,0,0,1-5.33,1.72c-1.94.7-3.89,1.36-5.83,2.09-3.42,1.28-6.28,3.6-9.77,4.66a49,49,0,0,1-5.67,1.53c-3.79.67-7.61.2-11.43.74-2.24.31-4.52.54-6.69,1-2.43.55-4.79,1.38-7.21,2.05-4.85,1.34-9.64,3.07-14.42,4.68-2.16.73-4.82,1.25-6.74,2.54s-4.52,2.44-6.21,4.08c0,0-92.82,50.24-70.82,57.24,0,0,634,148,931,74"/><path class="cls-6" d="M336,501s-20-19-34-25-65,19-65,19l34,47,65,14.12"/><path class="cls-6" d="M1486,537s39.82-28.27,48-26c15.06,4.18,25.24,2.44,24,3l63,6,27,26-89,27-90-42"/></g><g id="st._louis" data-name="st. louis"><polyline class="cls-7" points="846.43 599.33 846.43 595.04 847.6 595.04 847.6 588.6 844.02 588.6 844.02 589.32 841.16 589.32 841.16 588.6 838.29 588.6 838.29 599.33 839.5 599.33 839.5 595.75 840.44 595.75 840.44 595.04 841.16 595.04 841.16 590.75 844.02 590.75 844.02 593.61 841.16 593.61 841.16 595.04 845.45 595.04 845.45 599.33"/><polyline class="cls-7" points="826.7 595.04 826.7 588.6 823.27 588.6 823.27 589.32 821.13 589.32 821.13 588.6 818.26 588.6 818.26 595.04 818.98 595.04 818.98 596.47 820.13 596.47 820.13 595.04 821.13 595.04 821.13 590.75 823.27 590.75 823.27 593.61 821.13 593.61 821.13 594.32 823.27 594.32 823.27 595.04"/><polyline class="cls-7" points="789.65 595.75 789.65 591.46 790.36 591.46 790.36 585.02 786.78 585.02 786.78 585.74 783.92 585.74 783.92 585.02 780.35 585.02 780.35 591.46 781.06 591.46 781.06 592.89 782.13 592.89 782.13 591.46 783.92 591.46 783.92 587.17 786.78 587.17 786.78 590.75 783.92 590.75 783.92 591.46 788.22 591.46 788.22 595.75"/><path class="cls-7" d="M962.21,550.65s-10.88-10-21.61,0V555h-2.15v7.15H937v1.43h-1.43v36.49h-2.15v-22.9H931.3V575h-7.87v-2.15H902v2.86H892V597.9H884.8V595h-2.15v-3.58h-8.58V562.85h.71V560H871.2v-2.86H855.46V560h-3.57v2.87h.71v36.48H834.72l-1.43,42.93H961.35l8.58-71.54s14.31-123.06,72.26-122.34c51.52.64,68,120.19,68,120.19l10.73-1.43s-18.65-120.23-78.69-123C981.38,441.23,961.35,555,961.35,555"/><path class="cls-7" d="M971.63,559.38h3.31v26.36h1.43V566.42h2.15V565h5.72V560.7h4.29v-1.43h2.15v-2.15h.71v2.15h1.43v-.72h.72v.72h10.73V560h6.44v32.2s6.44,2.14,8.58,7.15v3.58h2.15v-4.29h2.86v43.64H961.35V596.42"/><path class="cls-7" d="M1045.76,583.59V585h.72v1.43s4.29,0,5,5v10h13.59v1.43h1.43V595h7.16v-2.15h1.43V585h2.14v-.71l5.93.24v57.71h-60.06v-40l13.35,0v-.71h1.43v-10s1.44-5,5-5V585h.72v-3.57h0s0-2.15.71-2.15V575h.72v4.29s.71,0,.71,2.15"/><path class="cls-7" d="M1081.53,584.31V542.1h4.3v-3.58H1088v-3.58h9.3v3.58h2.15v3.58h2.86v21.46h1.43v-2.15l2.86-2.86h20.75v8.59h1.43v1.43h2.15V521.35l4.29-9.3h15l3.58-5,3.58,5h15l2.86,7.16v35h5v1.43h1.43v1.43h2.86V570h10.74v-1.43h2.86v-.72H1201v.72h5v-1.43h2.14v-.72h4.3v2.86h2.14V570h3.58v14.31h.71V571.43h3.58v-2.15h2.86v2.15h.72v-2.15h5v2.87h1.43v10.73h5.72s0-2.15,3.58-2.86V544.24h6.44V540h.71v-2.14h1.43V540H1274v4.29h6.44v7.87s2.15,0,2.86,3.58v5.72h2.15v17.17h5s3.57,2.15,3.57,3.58h3.58v-1.43H1299v-3.58h.72l.71-1.43L1300,656l-218.47-13.74"/><polyline class="cls-7" points="836.86 597.9 829.71 597.9 829.71 596.47 828.28 596.47 828.28 595.04 823.99 595.04 823.99 596.47 816.12 596.47 816.12 597.18 807.53 597.18 807.53 598.62 801.09 598.62 801.09 597.18 790.36 597.18 790.36 595.75 784.64 595.75 784.64 592.89 779.63 592.89 779.63 591.46 775.34 591.46 775.34 590.75 773.91 590.75 773.91 592.18 770.33 592.18 770.33 595.04 767.47 595.04 767.47 596.47 764.61 596.47 764.61 642.26 834 642.26"/><polyline class="cls-7" points="1300 575 1300 559 1327 559 1327 585 1329 585 1329 579 1344 579 1344 575 1388 575 1388 634 1300 634"/><polygon class="cls-7" points="1200 663 838 706 785 630 1200 630 1200 663"/><polyline class="cls-7" points="1380.16 592.04 1380.16 580.85 1410 581 1411 596 1409 596 1409 572 1429 572.08 1443 570 1453 573 1453 610 1448 611 1452 578 1472 569 1476 569 1476 570 1506 570 1506 628 1381 628"/></g><g id="jetpack"><path class="cls-8" d="M844.47,326.61c-5.06.37-10.17.21-15.17,1.05a35.77,35.77,0,0,1-4.36.63c-1.07,0-2.16-.06-3.23.06-2.59.29-4.86,1.81-7.31,2.68-2.19.78-4.59,1.06-6.54,2.31a4.21,4.21,0,0,0-.45,2.6l-2.84,1.68c-.62.37-1.31.85-1.33,1.57a2.3,2.3,0,0,0,.2.81l.87,2.23a2.22,2.22,0,0,0,1.53-.23c.5-.23,1-.54,1.49-.73a2,2,0,0,0,.39-.18,1.09,1.09,0,0,0,.31-.33,4,4,0,0,0,.55-1.11c4.35-1.49,8.68-3.1,12.89-4.93a1.88,1.88,0,0,1,1,0,32.4,32.4,0,0,1,4.45,1,2,2,0,0,1-.43,1.25,6.1,6.1,0,0,1-1.75,2c-.31.2-.67.34-1,.56a4.37,4.37,0,0,0-1.32,2,46.69,46.69,0,0,0-1.86,5.37,134.13,134.13,0,0,1-5,14.77c-.41,1-.84,2-1.26,3q-1.94,4.59-3.78,9.21c-1,2.41-3,4.12-4.59,6.22s-2.9,4-4.24,6a4.63,4.63,0,0,0-.66,1.29,2.38,2.38,0,0,0,.82,2.41c.15,1.27-.7,2.5-1.49,3.52l-3.66,4.77a3.14,3.14,0,0,0-.65,1.15,2.91,2.91,0,0,0,0,1l.53,5.41c.08.81.88,1.29,1.66,1.57a2.36,2.36,0,0,0,1.4.19,1.75,1.75,0,0,0,1.12-1.53,15.15,15.15,0,0,0-.06-2,10.69,10.69,0,0,1,1.2-4.41q1.67-3.76,3.59-7.4a3.69,3.69,0,0,0,2.69-.82,3.44,3.44,0,0,0,.56-1,22,22,0,0,1,2.76-4.92c.35-.45.73-.88,1.11-1.3l2.85-3.21a2.81,2.81,0,0,1,.84-.73c.18-.08.39-.13.57-.23a2.41,2.41,0,0,0,.7-.72l7.19-9.87a25.07,25.07,0,0,1,3.72-4.36,36.83,36.83,0,0,1-.59,5.33,9.67,9.67,0,0,0-.27,2.73,2.79,2.79,0,0,0,1.36,2.26,2.76,2.76,0,0,0,.8.25,2.33,2.33,0,0,0,2.35-.73,3.24,3.24,0,0,0,.35-.88c.5-1.79,1-3.57,1.59-5.34a5.61,5.61,0,0,1,2.72-.23c.48.11.93.34,1.41.43a4.85,4.85,0,0,0,1,0l1.16,0a19.06,19.06,0,0,1,4.31.87l1.34.29,1.12.25,1.92.42a4.87,4.87,0,0,0,3.89-1.34,2.6,2.6,0,0,0,1.15-2.34c-.09-.42-.21-.83-.3-1.25a3,3,0,0,0-.3-.91A3.32,3.32,0,0,0,853,364l-1.58-1.61c-.2-.19-.29-.53-.49-.72a20.37,20.37,0,0,0-3.44-2.54c-2.32-1.5-4.58-3.09-6.78-4.75-.32-.25-.67-.57-.62-1a5.59,5.59,0,0,1,.7-1.83c.82-1.5,1.89-2.86,2.67-4.38a9.11,9.11,0,0,1,1.81-2.9,7.15,7.15,0,0,1,1,2.17l.35,1.11a2.61,2.61,0,0,1,.18.78,5.14,5.14,0,0,1-.33,1.42,1.32,1.32,0,0,0,.28,1.36c.2.17.49.23.67.42s.19.29.34.39a.76.76,0,0,0,.61,0,5.56,5.56,0,0,0,1.7-.68,38.69,38.69,0,0,1-.46-3.86.37.37,0,0,1,.06-.29.4.4,0,0,1,.22-.09,1.08,1.08,0,0,0,.66-1.47,12.53,12.53,0,0,1-.83-4.33,1.62,1.62,0,0,1,.37-1,24.14,24.14,0,0,1,2.08-2.44l2.39-2.56a6.3,6.3,0,0,0,.81-1,3.31,3.31,0,0,0,.43-2.4.27.27,0,0,1,0-.41,1,1,0,0,1,.45-.12,1.83,1.83,0,0,0,.76-.24,2.62,2.62,0,0,0,.81-1.12,11.33,11.33,0,0,0,1-2.66,6.4,6.4,0,0,0,0-2.31,11.81,11.81,0,0,0-.35-1.54L858,322.1a17.17,17.17,0,0,0-.7-1.66,9.55,9.55,0,0,0-.69-1.49,6.26,6.26,0,0,0-5.17-3.1,5.42,5.42,0,0,0-5,3.2c-.1.23-.61,1.18-.74,1.43a4,4,0,0,0-.26,2.34,16,16,0,0,0,.54,2.65,4.11,4.11,0,0,1-.72.84A1.23,1.23,0,0,1,844.47,326.61Z"/><path class="cls-8" d="M853.06,320.75s14.48-7.77.91,2.08"/><path class="cls-8" d="M839,327.1a4.18,4.18,0,0,0-4.6-1.42,11.85,11.85,0,0,0-4.36,2.68,236.08,236.08,0,0,0-18.51,17.41,37.46,37.46,0,0,0,6.63,4.78l6.62-7.74c.91-1.06,2-1.38,2.88-2.43C831.42,336.05,835.18,331.42,839,327.1Z"/><polyline class="cls-8" points="812.84 346.08 810.77 347.2 816.14 351.24 817.13 349.11"/><path class="cls-8" d="M388.66,578.77l83.4-9a6.39,6.39,0,0,0,1.89-1.88,3.35,3.35,0,0,1,1-1.25,9.48,9.48,0,0,1,2.67-1.31,7.75,7.75,0,0,1,3.17-.87,11.44,11.44,0,0,1,2.24.4c.54.16,1.05.64,1.61.35s.81-1.2,1.14-1.67a12,12,0,0,1,.9-1.22,11.42,11.42,0,0,1,3.67-3c1.92-.81,4.38-.43,6.36-.22a5.63,5.63,0,0,1,2.36.51,1.4,1.4,0,0,0,1.39.29c.28-.19.35-.66.49-.94a15.14,15.14,0,0,1,1.25-1.93c.42-.61.63-1.3,1.06-1.89a16.1,16.1,0,0,1,2.34-2.09c1.17-1.11,3.15-1.32,4.69-1.58a17.44,17.44,0,0,1,6.67.36c.81.17.64.33,1.1-.3a5.16,5.16,0,0,1,1.3-1.43c1.29-.94,2.64-1.75,3.83-2.81a4.82,4.82,0,0,1,4.37-1.41c.9.15,2,.92,2.83.29.54-.4.57-1.11.82-1.69.17-.4.41-.74.62-1.14a12.33,12.33,0,0,1,2.39-3.21c1.33-1.29,2.38-2.81,3.69-4.13a15.29,15.29,0,0,1,2.87-2.26,5.07,5.07,0,0,1,4-.84,4.28,4.28,0,0,0,2.57-.39,7.3,7.3,0,0,1,2.34-.57c1,0,1.34.87,2.11,1.4s2.72,1.45,3.74,1.24,1-1.09,1.52-1.85c.33-.53.55-.51,1-.89s.36-.63.61-.89a10.29,10.29,0,0,1,2.49-1.63,8.32,8.32,0,0,1,5.62-.86,10.38,10.38,0,0,1,2.24.63c.67.27,1.52.31,2.13.6s.66.81,1.47.52c.3-.1.47-.37.69-.57.68-.63,1.45-1,2.16-1.56a9.55,9.55,0,0,1,2-1.51,8.65,8.65,0,0,1,2.74,0c1.39,0,2.81.09,4.2,0a2.61,2.61,0,0,0,2-1.33c.51-.65.77-1.21,1.54-1.5a6,6,0,0,1,2.51-.61l2.56,140L321.5,650.5l-18-111-.05.48a9.53,9.53,0,0,1,1.13-3.75,28.77,28.77,0,0,1,1.83-2.81,12.6,12.6,0,0,1,1.83-2.62,22.65,22.65,0,0,0,2.2-2.29,4.1,4.1,0,0,1,2.62-1.82c.87-.28,1.75-.41,2.63-.7a13.42,13.42,0,0,1,7.06-.13,10.09,10.09,0,0,1,6,3.6c.71.95.7,2.18,1.32,3.17.89,1.4,1.28.36,2.56,0,3.43-1,9.06,1.66,10.8,4.5,1.31,2.14,1.88,3.77,1.3,6.27-.19.84-.34,1.1.19,1.82a22.26,22.26,0,0,1,1.52,1.93,8.36,8.36,0,0,1,1.6,4.74,25.08,25.08,0,0,1-.8,3.18c-.13.63-.53,1.89-.24,2.39.48.87,1.93.37,2.78.43a6.86,6.86,0,0,1,2.06.56,9.07,9.07,0,0,1,4.29,2.94,8.25,8.25,0,0,1,1.08,5.7c-.13.92-1.59,4.2,0,4.44.57.09,2-.84,2.58-.92a20.33,20.33,0,0,1,2.59,0,10.85,10.85,0,0,1,4.54.95,20,20,0,0,1,3.07,2.13c1.1.71,2.34,1,3.4,1.79a5.08,5.08,0,0,1,2.18,3,7.91,7.91,0,0,0,.54,2c.76-.44.9-1.51,1.64-2a3,3,0,0,1,2-.4,20.53,20.53,0,0,1,4.15.22c1.61.3,3.21.26,4.79.56.91.17,3.69-.23,3.5,1.41Z"/><path class="cls-8" d="M388.66,580.27c27.36-3,54.94-5.1,82.19-8.92,3.21-.45,4.15-3.46,7.14-4.63s5.5.73,8-.87c.22-.14.36-.48.55-.68,1.67-1.81,2.07-2.92,4.59-3.95,3.25-1.32,5.56-.64,8.9.06a1.58,1.58,0,0,0,1.7-.68c1.23-1.81,2-4,3.68-5.56,3.17-2.89,7.93-2.55,11.8-1.67a1.53,1.53,0,0,0,1.46-.39,34.7,34.7,0,0,1,4.32-3.7,6.88,6.88,0,0,1,5.09-1.73c.53,0,1,.39,1.56.27,3.11-.66,3.68-4.47,5.62-6.69a53.81,53.81,0,0,1,4.13-4.55c2.14-1.94,4.89-2.29,7.66-2.48,2.05-.14,1.07-1,3.63.24.38.19.7.52,1.09.7a7,7,0,0,0,3.71,1c2-.33,2.5-2.16,3.77-3.49,2.52-2.65,5.81-3.14,9.26-2.06,1.16.37,2.36,1.19,3.59,1.16,1.52,0,2.19-1,3.47-1.93a8.66,8.66,0,0,1,5.88-1.72c1.55,0,3.32.26,4.72-.62,1.72-1.08,2.24-2.57,4.55-2.88l-1.9-1.44,2.24,122.63.32,17.41,1.5-1.5-91.52-4.25L355,650.55,321.5,649l1.45,1.1-15.79-97.37L305,539.1c-.3-1.8-2.78-1.14-2.95.4L302,540c-.21,1.93,2.75,1.87,3,0,.87-6.69,7.66-12.87,14.26-13a12.11,12.11,0,0,1,4.54.76c3.18,1.22,3.1,2.19,4.57,4.61.6,1,.94,2,2.14,2.44,1.42.51,3.78-.94,5.3-.72,3.82.55,7.2,3.58,7.48,7.4.12,1.65-.29,2.59.21,4.07.32.94,1.22,1.54,1.71,2.37,2.61,4.45.68,4.65.37,8-.27,2.85.93,3.07,3.27,3.53,4.26.85,7.58,3.24,6.69,8.32-.2,1.13-.78,2.31-.38,3.47,1,3,3.75,1,5.94.82,3.3-.3,5.49,1.43,8.15,2.9,3,1.67,4.31,2.57,5.43,5.87a1.52,1.52,0,0,0,2.51.66c2-2.35,4-2.05,6.73-1.76.79.09,6.69.28,6.84.87l1.85-1.85-3.5-1.41c-1.79-.72-2.57,2.18-.8,2.9l3.5,1.41c1.1.44,2.11-.84,1.85-1.85-.83-3.08-4.79-2.49-7.33-2.79-4.82-.56-8-1.48-11.26,2.36l2.51.66c-.86-2.51-1.13-4.22-3.41-5.87a44.22,44.22,0,0,0-6.84-4.07c-2.67-1.22-5.37-.18-7.92-.92-1.78-.52-.6,1.34-.85-1-.13-1.26.39-2.63.18-4a7.88,7.88,0,0,0-2.68-5c-1.92-1.66-4.36-1.52-6.22-2.72-1,.38-1.32.08-1.1-.92a24.69,24.69,0,0,0,.81-3.18,8.08,8.08,0,0,0-.78-4c-.44-1-1.23-1.86-1.71-2.84-.75-1.52-.38-1.86-.56-3.41a11.62,11.62,0,0,0-8.63-10.47,11.94,11.94,0,0,0-2.9-.58c-.38,0-2.88.46-3,.39-1.66-.74-2.74-4-4.46-5.13-10.48-7.06-24,2.59-25.48,13.79h3l.05-.48-2.95.4,15.79,97.37,2.21,13.63a1.52,1.52,0,0,0,1.45,1.1L413,656.24,559.44,663l33.45,1.55a1.52,1.52,0,0,0,1.5-1.5l-2.24-122.64-.32-17.4a1.53,1.53,0,0,0-1.9-1.45c-3,.41-4.22,2.87-7.07,3.42-2.07.4-4.23-.55-6.3.2s-3,3-5.11,3-4-1.41-6.2-1.44a11.37,11.37,0,0,0-7.44,2.84c-.71.62-1.78,2.84-2.46,3.09-2.09.78-3.94-2.21-6.11-2.24a26.63,26.63,0,0,0-7.78,1.23c-4.19,1.41-8.38,6.67-10.6,10.27-1.77,2.87-1.61,2.15-4.56,2.31-2.14.11-3.66,1.54-5.3,2.75a24.16,24.16,0,0,1-3.45,2.65c-1.65.74,3.26.61-1.87.36a25.25,25.25,0,0,0-7.66.29c-4.8,1.19-6.34,5.08-8.87,8.78l1.69-.69c-3-.63-6.07-1.52-9.18-1s-4.61,2.67-6.75,4.74c-1.42,1.38-.76,1-2.61,1-1.47,0-2-.28-3.55.13a12.09,12.09,0,0,0-6.19,3.88c-1.29,1.38-1.48,1.22-3.76,1.46l-8.67.94-55.74,6-15.73,1.71C386.76,577.48,386.74,580.48,388.66,580.27Z"/><path class="cls-8" d="M386.5,572.13c-.45-.49-.82-1.45-1.27-1.9a4.55,4.55,0,0,0-1.63-1.06,45.93,45.93,0,0,0-4.39-1.58c-1.35-.4-2.46-1-3.9-.64-.69.15-1.37.37-2.05.54a4.43,4.43,0,0,0-1.09.25c-.38.21-.57.72-1.05.7-.36-.34-.35-.84-.72-1.22a10,10,0,0,0-1.06-1,7.5,7.5,0,0,0-2.11-1.12,2.65,2.65,0,0,0-1-.15,7.28,7.28,0,0,1-1.23-.17,19.64,19.64,0,0,0-2.43,0,7.77,7.77,0,0,0-1.37.16c-.39.06-.77,0-1.15.09a16.14,16.14,0,0,0-2.87,1.39,9.58,9.58,0,0,0-1.37.91,15.43,15.43,0,0,0-1.39.83c-.32.27-.74.55-1,.83s-.51.9-.89,1.28C352.49,570.23,404.51,591.77,386.5,572.13Z"/><path class="cls-8" d="M387.8,571.38c-3.82-5.8-11.48-7-17.44-4.23l2.05.53c-4.63-7.79-16.79-4.58-21.22,1.79a1.53,1.53,0,0,0,.9,2.21c8.87,3.66,18.06,7.15,27.43,9.23,3,.65,8.63,2.29,11.22-.19,3.06-2.93-1.24-7.5-3.18-9.65-1.29-1.44-3.4.69-2.12,2.12,2,2.26,5.53,5.7.68,5.69-4.46,0-9.12-1.61-13.34-2.91-6.73-2.06-13.38-4.5-19.89-7.19l.89,2.21c3.11-4.47,12.7-7.41,16-1.79a1.55,1.55,0,0,0,2.05.54c4.21-2,10.59-1,13.34,3.15C386.27,574.5,388.86,573,387.8,571.38Z"/><path class="cls-8" d="M810.33,638.23c.76.76.78,2.17,1.43,3a5.67,5.67,0,0,1,.71,1.09,8.8,8.8,0,0,0,1.06,1.59,11.5,11.5,0,0,0,.92,1.59c.43.47.75,1,1.15,1.45.76.95,2.1,1.54,3,2.37a16.47,16.47,0,0,1,1.25,1.61,6,6,0,0,1,1,1.12,5.19,5.19,0,0,0,1,1.48c.56.56.75,1.19,1.24,1.75.26.29.66.49.92.79s.34.63.6.89c.43.43,1,.69,1.46,1.1s.7.84,1.08,1.2a4.52,4.52,0,0,0,2.18,1c1,.27,2.29.34,3.09,1,1,.92.81,2.87,1.38,4.07a12.54,12.54,0,0,0,1.87,2.41c.49.61.82,1.26,1.54,1.61a7.25,7.25,0,0,1,1.79,1.19,5.87,5.87,0,0,0,2.4,1.11c5.55,1.71,11.34,3.21,17.15,2.06,1.66-.33,3.48-.38,5.11-.88a6.05,6.05,0,0,1,1.32-.32c.58-.06.92.06,1.43-.29.68-.48.73-.79,1.66-.6.65.13,1.34.39,2,.57a14.14,14.14,0,0,0,2.64.65,24.38,24.38,0,0,1,2.7.39c2.76.56,5.7,1.43,8.57.81a28.32,28.32,0,0,0,4-1.39c1.48-.56,3.71-1.33,4.88-2.42a12.11,12.11,0,0,0,2.76-3.89c.69-1.56.49-3.3.48-5a9.5,9.5,0,0,0-1.43-4.42,13.4,13.4,0,0,0-1.12-1.66,2,2,0,0,1-.41-2.16,7.61,7.61,0,0,0,.09-4.58,11.16,11.16,0,0,0-7.7-7.11,29.55,29.55,0,0,0-4.6-.4c-1,0-2,.24-3,.34a30.29,30.29,0,0,0-4.14.56,18.2,18.2,0,0,1-7.6-.08c-1.07-.19-2-.58-3.08-.8a11.53,11.53,0,0,1-2.23-.89c-1.8-.76-3.61-1.69-5.45-2.31-1.39-.46-2.94,0-4.31.42a25.34,25.34,0,0,0-4.82,2.06c-.77.41-2.74.7-2.17,1.85.35.68,1.37,1,2.05,1.22,1.34.48.52.92.71,2.22a2.85,2.85,0,0,0,1.6,2.13,13.76,13.76,0,0,0,5,1.18c.63.08,2-.17,2.55.16.28,2.21-1.93,3-3.57,3.49a19.52,19.52,0,0,1-5.86.55c-2.08,0-4.29-.89-6.28-1.44a14.81,14.81,0,0,0-3.64-.74,14,14,0,0,0-1.71.22,10.33,10.33,0,0,0-1.36.4c-1.2.29-2.62-.75-3.7-1.23a17.32,17.32,0,0,1-3.2-1.73c-1.31-.94-2.92-1.26-4.24-2.16l-2.24-1.57c-1.69-1.16-3.25-2.57-5-3.65a29.55,29.55,0,0,1-4.6-3.35"/><path class="cls-8" d="M469.62,564.05c-1.86-.34-2.42-2.53-3.65-3.76a26.83,26.83,0,0,0-4-3.29c-1.19-.75-3.33-.36-4.7-.37-1.57,0-3.14,0-4.71,0a7.35,7.35,0,0,1-4.36-1.5c-1.51-1.09-1.33-2.17-1.31-4a11.49,11.49,0,0,0-1.73-5.7,2.2,2.2,0,0,1-.38-2.59c.86-1.36,3.25-1.53,4.32-2.92,1.39-1.82,1.55-4.11,3.8-5.32,1.56-.84,3.17-.6,4.83-.72,2.48-.19,3.48-2.49,5.84-2.74,1.83-.18,2.69,1.43,4.13,2.36a25.61,25.61,0,0,0,2.33,1.23,3.68,3.68,0,0,0,4.33-.63,3.07,3.07,0,0,1,.65-.53c.95-.55,1.41-.28,2.41-.36,4.32-.35,2.39-3.53,1.07-5.71-1.49-2.47-.47-5.59-1.89-8.16-2-3.68-5.47-4-9.23-4.23-4.15-.31-7.06-3.81-10.5-5.7-4.72-2.59-10.6-2.42-15.71-1.29-4.19.94-7.78,4.61-12,5s-8.29-.53-12.38,1c-3.08,1.13-4.78,4-5.55,7-1.13,4.44-5.88,2.73-9.39,3.93-4.86,1.67-9.38,3.8-12.47,8.12-.85,1.19-1.32,2.6-2.06,3.86-1.55,2.62-4.5,3.46-7.13,4.83-1.79.94-4.45,2.15-5.61,3.93s-.64,4.27-1,6.21c-.59,3.28-2.17,5.52-.89,8.76.94,2.36,2.51,4.42,3.46,6.8a4.18,4.18,0,0,0,2.59,2.91c4.3,2.37,6.58,6.85,10.28,10,10.21,8.63,22.57,13.29,35.63,15.71,6.93,1.28,13.67,1.16,20.69,1.45,4.33.18,8.7.81,13,.3,4.14-.48,8.26-1.48,12.34-2.33s6.85-1.94,8.92-6a23,23,0,0,0,2.13-9.33c.11-4.47,4.68-11.78-3.41-14.32"/><path class="cls-8" d="M590.71,521.46a23.83,23.83,0,0,0,7.43.44c1.94-.27,1.86-.51,2.65-1.87.41-.7.85-1.4,1.27-2.1a15.77,15.77,0,0,1,3.85-3.75c1.11-.89,2.36-2.4,3.68-2.95,2.24-.92,4.76-.73,7.08-1.15a20,20,0,0,1,3.93-.36,4.76,4.76,0,0,0,2.14-.29c1.29-.54,2.19-1.7,3.45-2.28a28.39,28.39,0,0,1,3.38-1.23,7.28,7.28,0,0,1,2.08-.55c1.52,0,3.05,0,4.57,0,.79,0,1.64.08,2.42,0s1.07-.4,1.56-1c.93-1.19,1.79-2.32,2.8-3.42.76-.83,1.55-1.55,2.35-2.34.64-.64,1.14-1.59,1.95-2a9.38,9.38,0,0,1,3.89-.89,13.67,13.67,0,0,0,5.4-.68c1-.47,1.34-1.91,2-2.69a6.33,6.33,0,0,1,1.6-1c.52-.25,1.13-.41,1.67-.61,1.12-.41,6.34-.21,7.52-.21l-137,130,280-271,1,1-222,317,110-161a48,48,0,0,1,3.67,7.26c.22.86.48,1.69.67,2.54.11.46,0,.93.1,1.4a6.42,6.42,0,0,1,.24,1.39c0,1.06,0,2.11,0,3.17a6.09,6.09,0,0,1-.93,3.08,9.72,9.72,0,0,0-.87,3.14,2.11,2.11,0,0,0,.88,1.67c.46.46.79.94,1.22,1.43a8.63,8.63,0,0,0,1.18.91c.73.55,1.2,1.33,1.89,1.94a29.79,29.79,0,0,1,3.25,3.3A22.08,22.08,0,0,1,715,542a77.33,77.33,0,0,1,3.72,10c.28.81.87,1.44,1.16,2.23a16.1,16.1,0,0,1,.51,2.31c.45,2.14.9,4.28,1.3,6.43a39,39,0,0,1,1,4.58c.09,1.32,0,2.68,0,4a28.21,28.21,0,0,1-.64,3.39c-.09.84.14,1,.91,1.17a15.36,15.36,0,0,1,2.27.91,31.43,31.43,0,0,1,3.31,2.34c.62.41,1.31.52,1.92,1a9.25,9.25,0,0,1,1.79,1.8c1.6,2.1,3.12,5.24,3.07,7.93,0,.4-.2,1.26.07,1.58s2,.08,2.41.1a24.84,24.84,0,0,1,4,.63A20,20,0,0,1,745,593c.71.27,1.35.79,2.07,1s1.08-.15,1.72-.5a8.28,8.28,0,0,1,4.41-.88,20,20,0,0,1,4.38,0,6.85,6.85,0,0,1,1.73.92c1,.62,2.18,1.15,3.16,1.83a5.17,5.17,0,0,1,1.39,1.52c.67,1,1.45,1.85,2.17,2.82a10.08,10.08,0,0,1,1.67,4.28,12,12,0,0,1,0,1.59c0,.43-.24,1.62.08,2s2-.19,2.57-.26a12.55,12.55,0,0,1,6.16.67c2.67,1,5.51,1.42,8,3a45.66,45.66,0,0,1,4.79,3.63,16.19,16.19,0,0,1,2.63,3.19,19.81,19.81,0,0,1,3.16,7.44c.07.37.15.75.23,1.12s0,.92.09,1.3c.29,1,1.39,1.73,2.11,2.45a37.27,37.27,0,0,1,2.72,2.76,18,18,0,0,1,2.08,3.65,16,16,0,0,1,1.78,7.74,12.39,12.39,0,0,1-1.56,4.74h.93a7.79,7.79,0,0,1,2.16.06,7,7,0,0,1,2,1.32,26.14,26.14,0,0,1,3.72,4.46,9.66,9.66,0,0,1,2.33,5.2c0,.63,0,1.29,0,1.92a7.85,7.85,0,0,1,0,1c0,.29-.43.94-.22,1.21.33.45,2.17-.27,2.52-.32a10.94,10.94,0,0,1,2.62-.05c1.09.11,1.93,1,2.92,1.38s1.94.86,2.94,1.41a9.58,9.58,0,0,1,3.47,4.08,8.26,8.26,0,0,1,.53,2.45,6.84,6.84,0,0,1,0,1.75c-.08.34-.36.64-.32,1,.77.73,3.29.28,4.31.28,2,0,3.54,1.23,5.38,1.84,2.29.75,3.84,2.68,5.57,4.25a5,5,0,0,1,1,1.24,4.5,4.5,0,0,0,.62,1.08c.93.43,2.38-.87,3.29-1.15a19.86,19.86,0,0,1,5.71-.48h2.49a11.25,11.25,0,0,1,3.36.54,5.6,5.6,0,0,1,2.21,1.31,8.67,8.67,0,0,1,2.11,1.69c.36.56.69,1.17,1.06,1.73s.53,1.36,1,1.55,2-.46,2.54-.65a19.12,19.12,0,0,1,4.44-.7,30.59,30.59,0,0,1,8,.21,19.31,19.31,0,0,1,7.94,3.33,26.82,26.82,0,0,1,2.47,2c.72.62,1.39,1.08,2.28.81,2-.61,3.54-2.48,5.42-3.35a16.15,16.15,0,0,1,5.43-1c1.14-.1,2.34-.22,3.5-.29s1.17,0,1.83-1c2.07-3.4,3.88-6.22,7.22-8.52a18.2,18.2,0,0,1,7.52-2.94c1.61-.25,3.84.78,5.16-.41a9.52,9.52,0,0,1,3.17-2.28,20.5,20.5,0,0,1,2.74-.82c2.51-.56,5.29-1.81,7.88-1.14a21.5,21.5,0,0,1,2.67,1.06,9.05,9.05,0,0,1,3,1.54l.14.16c1.47-1.47,2.94-3.14,4.91-3.85,2.12-.77,4.41-.54,6.63-.54,1.3,0,3.14-.37,4.39.08.91.33,1.34,1.31,2.15,1.74,1.61.85,2.42-.39,3.3-1.65a17.54,17.54,0,0,1,4-4.6,20,20,0,0,1,8.08-2.66c1.34-.14,1.93.28,2.79-.95,1-1.4,1.21-3.13,2.28-4.56,2-2.67,4.46-6.15,7.51-7.7a14.82,14.82,0,0,1,4.16-1.21c1.59-.31,2.9-1.13,4.45-1.53a14.11,14.11,0,0,1,7.81-.15c1,.34,2.18.55,3.13,1,1.6.68,1.88,1.61,3.82,1.29,2.41-.41,4.52-2.08,6.84-2.92a11.33,11.33,0,0,1,4.41-.83,9.58,9.58,0,0,1,4.76,1.1,14.24,14.24,0,0,1,4.58,2.75,27.85,27.85,0,0,0,2.17,1.92c.55.45,1.48,1.61,2.12,1.81,1.69.52,3.9-2,5.35-2.78a26.26,26.26,0,0,1,8.4-2.53c2.61-.36,6.46,1.32,8.87,2.14a27.85,27.85,0,0,1,4.49,1.6c1.2.67,1.81,2.24,3.11,1.61.77-.38,1.12-1.43,1.66-2.07a12.42,12.42,0,0,1,2.66-2.51c2.74-1.78,6.84-1.38,10-1.39,4,0,6.65,1.39,9.83,3.84.54.42,1.12.81,1.65,1.24,1.13.93,1.13,1.45,2.42,1,2.05-.66,3.73-1.58,6-1.75a5.62,5.62,0,0,1,4.49,1.38c1.15,1,1.39,2.6,2.43,3.58l1-1.28c0-1.76,2.64-3.62,4.11-4.25a9.86,9.86,0,0,1,4.43-.37c3.58.38,6.7,3,8.94,5.51.82-.65.91-1.91,1.62-2.68a11.26,11.26,0,0,1,3.16-2.06,19,19,0,0,1,8.37-1.77c3.06,0,6.45-.45,9.46.12,2.8.53,6,.62,8.43,2.3,2,1.39,3.78,3.06,5.85,4.44,1.37.91,1.88.42,3.29-.23a32.74,32.74,0,0,1,5.13-1.68,22.33,22.33,0,0,1,6.22-.37c1.09,0,1.77.56,2.48-.38s.34-2,.51-2.86a17.14,17.14,0,0,1,.93-2.84,17.49,17.49,0,0,1,6-7.21l31.23,113.92c-168.93,28-397.32,33.2-612.55-13.82a765.65,765.65,0,0,1-76.7-20.93"/><path class="cls-8" d="M298,521c-.92-.18-1.38.73-2.26.37s-1.61-2-2.07-2.72a10.49,10.49,0,0,0-5.23-3.81c-3.1-1.29-5.65-2.34-9.08-2.32a30.36,30.36,0,0,1-5-.14c-1.63-.25-4.11-.06-4.84-1.82-1.24-3,1.56-6.77-1.56-8.78-1.15-.74-2.79-1.46-3.38-2.83-.18-.42,0-.74-.08-1.15-.39-1.75-.41-2.75-1.48-4.37a19.21,19.21,0,0,0-1.55-2.36,35.94,35.94,0,0,0-3.34-2.46c-1.47-1.23-3.12-1.55-4.63-2.56-1.78-1.2-1.37-2.91-1.35-4.86a18.47,18.47,0,0,0,0-2.23c-.13-1.08-.74-1.64-1.13-2.66a17,17,0,0,0-.78-2.31,29.32,29.32,0,0,0-1.82-2.63,12.78,12.78,0,0,0-1.85-2.52c-.6-.53-1.41-.8-1.91-1.44-1.11-1.44-.56-4.87-.56-6.47,0-3.16.38-6.16-1.2-9-1.14-2-1.69-3.06-3.93-3.74a42.13,42.13,0,0,0-7.35-1.7c-2.2-.24-3.89-1.29-6,0-.9.57-1.34,1.53-2.46,1.79-1.78.4-3.74-.86-5.31-1.51-4.5-1.88-9.33-3.3-13.88-.94a28.65,28.65,0,0,1-4.67,2.33,26.08,26.08,0,0,1-3.17.61c-2,.34-4,1.49-5.77-.06-.74-.67-1.08-1.61-1.77-2.28a11.84,11.84,0,0,0-5.51-2.94,36.43,36.43,0,0,0-7.34-1.38c-1,0-2,0-2.92,0-1.19,0-3.62.51-4.69-.07-2-1.09-.91-4.67-1.73-6.56a21.15,21.15,0,0,0-11.79-11c-3.45-1.36-9-2.87-12.31-.28l-.67,1.36c-.07-4.39-.94-6.69-4.73-9.44-1.25-.91-2.39-1.89-3.63-2.84-2-1.52-3.46-1.75-5.57-2.39s-1.05-1.91-.38-3.62a13.92,13.92,0,0,0,1.25-5.2c.09-4.12.14-8.09-2.59-11.48-1.45-1.8-4.43-2.88-6.26-4.27A11,11,0,0,0,118,385c-.88-.39-1.92-.08-2.82-.46-4.68-1.95-.41-10.84-3.23-14.37-.66-.84-2.09-1.53-2.8-2.25s-1.09-1.7-1.79-2.52c-1.35-1.57-4-2.29-4-4.41,0-.56.67-1.8.76-2.51a25.1,25.1,0,0,0,0-3,10.77,10.77,0,0,0-1.61-6.58c-1.22-2.07-2.36-4.22-4.25-5.74s-4.36-2.34-6.41-3.66C90.08,338.39,88,336.57,86,336c-2.42-.73-6-.18-8.55-.13-2.19,0-3.59.56-4.08-2-.19-1,.48-2.62.53-3.68a22.77,22.77,0,0,0,0-3.09,13.55,13.55,0,0,0-2-6c-1.45-2.41-3.67-6.26-6.19-7.79-2.2-1.35-4.56-1.44-3.35-4.91.13-.36.95-.68,1.14-1.07a6.34,6.34,0,0,0,.61-2.34,16.48,16.48,0,0,0-.16-5.06,9.25,9.25,0,0,0-1.51-2.68c-.94-1.52-1.28-3.21-2.17-4.7C55.93,285.38,45.8,281,37.68,281.09c-1.5,0-4,.48-5.33-.11-2.39-1-2-5.13-3-7.27-1.24-2.64-3.12-4.17-5.35-5.9a22.41,22.41,0,0,0-3.31-2.62c-1.29-.66-2.12-.5-2.46-2.06-.38-1.74.2-2.59-.7-4.27a16.53,16.53,0,0,0-4.94-6c-4-2.58-5.79-2.24-10.1-1.35v216S150,623.5,360,677.5l-28-131S320.92,525.55,298,521Z"/><path class="cls-8" d="M298,519.53c-2.75.33-3.17-2.31-5.23-4a24.15,24.15,0,0,0-10.59-4.27c-4.08-.63-10.64,1.26-11.34-4.25-.37-2.93.49-4.37-2.08-6.52-1.38-1.15-2.18-1.51-2.77-3.09a35.33,35.33,0,0,0-1.32-4.17c-1.75-3.42-4.33-4.93-7.46-7-2.49-1.64-3.25-2.59-3.49-5.62a12.79,12.79,0,0,0-.67-3.78c-1.32-3.65-3.42-6.25-5.65-9.31-4.14-5.68.94-14.65-5.58-19.58-2.81-2.12-7.16-2.43-10.51-3-1.45-.25-3-.74-4.48-.43-3.12.65-2.48,2.67-6.87,1.59-3.31-.81-6.16-2.72-9.7-2.91-5-.26-8.16,2.81-12.82,3.94-5.32,1.29-7.72-2.74-12.16-4.48-4.27-1.68-8.44-1.65-12.89-1.91-3.24-.19-3.56-1.51-4.16-4.46a12.08,12.08,0,0,0-1.84-4.11,23.13,23.13,0,0,0-9.53-8.27c-4.62-2.22-13.5-4.84-16.42,1l2.8.76c-.16-4-1-6.86-4-9.6a39.56,39.56,0,0,0-5.09-4,28,28,0,0,0-2.73-1.53,10.58,10.58,0,0,0-1.72-.59c-1.44-.42-1.71-1.15-.82-2.2.09-1.8,1.19-3.68,1.31-5.6a26.43,26.43,0,0,0-.29-6.41c-.89-4.7-3.37-6.87-7.19-9.31-1.46-.93-2.78-2-4.24-2.95-1.88-1.17-3.57-.75-4-3.48a10.71,10.71,0,0,1,0-2.12c.09-3.11.52-6.17-1.36-8.84a35.68,35.68,0,0,0-4.59-4.77c-.51-.47-1.48-1.11-1.94-1.61-2.85-3.07-1-1.19-1-3.43-.1-4.54.27-7.71-2.06-11.78-2.56-4.45-5.2-6.1-9.56-8.57S86.91,334,81.76,334.1c-.83,0-5.51.9-6.25.3s0-6.15-.11-7.3c-.36-4.4-2.89-8.57-5.61-11.93-1.31-1.62-2.86-2.36-4.28-3.7l-.9-.44c-1.06-1.17-1.09-2.06-.07-2.67,0-.16.34-.44.39-.66,1.21-5.21.58-7.93-1.85-12.63a27.33,27.33,0,0,0-21-15.13c-2.37-.37-4.76.08-7.08-.18-4.11-.47-2.93-3.47-4.16-6.45-1.82-4.4-6.13-6.31-9.35-9.42-1.86-1.79-1.6-3.45-2.63-5.79a16.66,16.66,0,0,0-4.57-5.85c-3.85-3.12-7.52-3.13-12.16-2.2A1.52,1.52,0,0,0,1,251.5V457.55c0,3-.64,6.74,0,9.65.33,1.49,1.2,2.16,2.28,3.26,7.52,7.68,15.37,15,23.32,22.27a889.58,889.58,0,0,0,116.29,89c58.74,37.82,122.14,69,189,89.46q13.74,4.22,27.67,7.8a1.53,1.53,0,0,0,1.85-1.85l-13.69-64-9.5-44.45c-1.54-7.2-2.24-15.43-4.78-22.37-1.34-3.67-4.57-7.16-7.12-10a52.25,52.25,0,0,0-28-16.65c-1.89-.4-2.69,2.49-.8,2.89a49.62,49.62,0,0,1,26.67,15.88,59.79,59.79,0,0,1,5.5,7.27c.46.72.91,1.66.87,1.52,2.33,6.77,3.1,14.54,4.6,21.53l18.37,85.94,5,23.29,1.85-1.85c-69.59-18-135.7-47.78-197-85.08A892.45,892.45,0,0,1,37.53,498.48c-9.88-8.7-19.57-17.61-28.9-26.89-1.64-1.63-3.36-3.23-4.89-5-.18-.21,0,1.51.26.14a20.42,20.42,0,0,0,0-3.83V266.41c0-4.3.48-8.91,0-13.19a16.45,16.45,0,0,1,0-1.72L2.9,253c3.82-.77,6.67-.85,9.84,1.89,2.81,2.43,2.66,5.48,4,8.49,1.28,2.84,3.68,3.51,6.18,5.54,2.13,1.73,4.35,3.4,5.29,6.12.49,1.42.44,3,1,4.39,1.24,3.05,3.33,3.4,6.44,3.33a29.42,29.42,0,0,1,13.94,2.7c5.71,2.74,8.15,6.44,11.1,11.79,1.34,2.42,2.82,5.67,1.72,8.56-.44,1.17-1.34,1.64-1.71,2.86-.83,2.74.79,3.89,2.8,5.22,4.68,3.08,9,8.92,8.9,14.8,0,2.46-1.71,6.15.79,8,2.16,1.64,6.1.42,8.53.42,4.88,0,10.44,3.78,14.51,6.52,4.82,3.25,7.16,9.71,6.19,15.31-.5,2.9-.45,3.59,1.66,5.78,2.56,2.67,7.31,6.09,7.4,10,.06,2.86-.81,6.19.58,8.87a5.42,5.42,0,0,0,2.33,2.29c1.92,1.08,4.17,1.68,6.15,2.93,3.66,2.31,6,4.2,6.49,8.9a20.18,20.18,0,0,1-.64,8c-1,3.13-2.45,5,.93,6.78,1.16.61,2.61.68,3.81,1.31a30.56,30.56,0,0,1,3.81,2.83c3.46,2.64,5,4.56,5.21,9.08.05,1.39,2.09,2.16,2.79.76,1.72-3.44,7.31-1.83,10.2-.8,4.49,1.59,9.29,4.85,11.33,9.33,1,2.25.23,5.69,1.94,7.62s4.23,1.22,6.43,1.12c5.87-.27,11.26,1,15.58,5,2.35,2.18,3.41,2.5,6.62,1.94a27.7,27.7,0,0,0,6.29-1.62c2.41-1.05,4.54-2.63,7.28-2.84,4.91-.38,8.45,3.13,13,3.67,3.06.36,4.86-2.24,8-2.15,4.93.13,11,1.72,12.45,6.82,1,3.67-.11,7.23.42,10.92.48,3.35,3.2,4.58,5.08,7.32a19.1,19.1,0,0,1,2.12,4.3c1.07,2.86.44,4.13.9,6.84.5,2.94,2.64,3.59,5,4.94,4.29,2.42,6.07,5,7.35,9.53.75,2.66,2.92,3.41,4.1,5.79,1.29,2.6-.43,6.25,2.13,8.42,2.2,1.87,6.69,1.39,9.25,1.45,6,.16,11,2.18,14.76,6.85,1.72,2.13,2.22,1.91,4.71,1.62C299.84,522.3,299.86,519.3,298,519.53Z"/><path class="cls-8" d="M1862.5,268V543.5s-282,187.57-671.51,217.79l5.61-117.84c-1.1-1,.46-.44,1.31-.6a12.54,12.54,0,0,1,1.84,0,12.28,12.28,0,0,1,4.2.26c1.35.51,2.17,1.76,3.27,2.62.65.51,1.42,1.23,2.3,1.1s1.38-1.21,2.16-1.58c2.58-1.25,6.44-.75,9.22-.68,3.58.11,6.08,1.63,8.72,3.89,2.26-2.5,3.4-4.36,6.78-5.49a18,18,0,0,1,5.83-.71,15.79,15.79,0,0,1,5.92,1.15c1.46.61,1.15,1.46,3,.13,1.22-.89,2-2.26,3.28-3,2.49-1.46,6.12-1.58,8.92-1.7,3.19-.14,7.27-.45,10.39.45a14.59,14.59,0,0,1,4.39,2.45,15.12,15.12,0,0,1,2.48,1.7c.84.84,1.11,2.32,2.29,2.78.6-.59.7-1.43,1.18-2.12s1.15-1.24,1.69-1.92a9,9,0,0,1,2.56-2.75,9.1,9.1,0,0,1,4.35-1.16c.77,0,1.06.46,1.93.19s2-2,2.52-2.76a19.28,19.28,0,0,1,10.11-7.59,31.83,31.83,0,0,1,5.53-1.25c1.4-.17,2.9.19,4.28,0,3.1-.46,5.28-4.2,8.42-5.09a10.05,10.05,0,0,1,3.63-.14c1.3.2,2.23,1.22,3.44,1.59,1.06.31.59.78,2-.17.81-.56,1.48-1.31,2.31-1.86a19.18,19.18,0,0,1,7.89-2.57,64,64,0,0,1,8.86-.41,9.73,9.73,0,0,1,3.4.39c.92-.78,1-2.53,1.66-3.58a10.26,10.26,0,0,1,3.3-3.19,20.38,20.38,0,0,1,4.67-2.68c1.17-.35,1.13,0,1.94-1.24a28.9,28.9,0,0,0,1.61-3.59,55.63,55.63,0,0,1,6.93-10.76c1.56-1.89,2.67-2.86,5.1-3.22a37.24,37.24,0,0,1,12.15.16c1.19.23,2.64.95,3.88.81a10.1,10.1,0,0,0,2.43-1.07,23.07,23.07,0,0,1,3.69-1.21,13.31,13.31,0,0,1,6.35-.42c1.22.3,1.72,1.08,2.76,1.54,1.75.76,4-1.4,5.41-2.27a13,13,0,0,1,5-1.68,33.89,33.89,0,0,1,16.94,2c.6-.39.81-1,1.24-1.54a7.11,7.11,0,0,1,2.78-2.08,13.89,13.89,0,0,1,5.15-1.42c3.68-.17,6.24.71,8.06,4.05l.92.26c.14-2.55,3-3.65,4.93-4.5s4.15.1,6.22-.39c1.35-.32,1.69-1.53,2.29-2.66a20.88,20.88,0,0,1,2.66-4.25,11.07,11.07,0,0,1,6-3.54,16.62,16.62,0,0,1,6.17,0c1.25.26,2.07,1.2,3.29.56s1.33-2.19,1.8-3.16c1.49-3.09,3.79-3.94,6.88-4.79a15,15,0,0,1,3-.79,15.52,15.52,0,0,0,3-.07c.32-.94.08-2,.42-3a12.17,12.17,0,0,1,1.45-3.07,16.92,16.92,0,0,1,6.88-5.63c1-.46,2.52-.61,3.27-1.52s1-2.6,1.62-3.71a14,14,0,0,1,2.75-3.14c1.17-1.26,1.81-2.75,3.43-3.55,2.87-1.43,5.7-.61,8.67-1,1.93-.25,2.5-2.54,4.09-3.8a6.77,6.77,0,0,1,3.2-1.85,24,24,0,0,1,3.49.06,14.82,14.82,0,0,1,6.53,1.23c2.29.92,4.67,2.37,6.52.31,1.43-1.6,1.8-2.91,4-3.46a49.63,49.63,0,0,1,8.43-1.2,60.21,60.21,0,0,1,6.85,0,34.22,34.22,0,0,1,4.49.76c1.34.25,1.7.54,1.91-.94.24-1.77-.16-2.62.86-4.15a7.33,7.33,0,0,1,2.62-2.48c2.77-1.43,4.81-.05,5.77-3.72,1.57-6,8-8.33,12.93-11.06,1.41-.77,1.24-1.68,1.29-3.19a14.24,14.24,0,0,1,1-5.83,8.65,8.65,0,0,1,3.36-3.4c1.16-.8,2.62-1.11,3.43-2.21s.64-2.36.88-3.53a13.23,13.23,0,0,1,1.23-3.82,10.34,10.34,0,0,1,3.66-4.3,14.75,14.75,0,0,1,11.21-1l1.7.28c0-2.09-.49-3.95,1.65-5.06a23.85,23.85,0,0,0,2.45-1.72,6.25,6.25,0,0,1,2.54-.59,24.08,24.08,0,0,1,4.9-.42,19.47,19.47,0,0,1,2.29,0c1.16.14,1.76,1.15,2.93,1.27.45-.61.49-1.45,1-2.14a13.24,13.24,0,0,1,1.5-1.84c1.42-1.51,2.47-2.28,4.57-2.3,1.07,0,2.14,0,3.21,0a9.18,9.18,0,0,0,2.34,0c1.29-.43,1.47-3,1.79-4.28.78-3.15,1.23-6.16,3.63-8.57,1-1,2.39-1.63,2.75-3.08a14.3,14.3,0,0,0,0-3.27,10.91,10.91,0,0,1,.07-2.68,19.08,19.08,0,0,1,1.53-2.89,14.08,14.08,0,0,1,3.87-5.27,10,10,0,0,1,3.13-2,23.57,23.57,0,0,0,2.6-.45c1-.44,1-1,1.71-1.94a3.51,3.51,0,0,1,2.66-1.58c2.23-.47,5-1.5,7.26-.94a35.6,35.6,0,0,1,3.56,1.06c.86.32,1.55.86,2.4,1.21a4.85,4.85,0,0,0,1.11.38,3,3,0,0,1,1.24.86c1.24.42,1.5-.19,2.29-1.17a8.64,8.64,0,0,1,2.48-2.59c1-.54,2.33-.41,3.43-.64,2-.42,3.83,0,5.82,0,.79-1.08.53-2.47.67-3.71a10.43,10.43,0,0,1,1.27-3.79c1-1.76,2.55-2.6,3.94-3.9,1.19-1.11,1.2-2.91,1.16-4.45a19.06,19.06,0,0,1,.71-6.15c.78-2.59,3.38-4.37,5.27-6.2a25.33,25.33,0,0,1,5.7-4.28c1.47-.79,1.35-1,1.68-2.88.45-2.55,1.12-5.26,3.33-6.84A18.27,18.27,0,0,1,1744,387c1.38-.5,1.4-1.69,2.11-2.87a10.74,10.74,0,0,1,3.14-3.33,16.39,16.39,0,0,1,12.12-2.06c1.47.33,4.69.74,5.49,2.07l1.51-.27c0-3.88.39-7.76,3.29-10.63a7.75,7.75,0,0,1,4.2-2.39c1.59-.34,3.32.19,4.85-.24.71-2.2-.12-4.92.08-7.23.28-3.32,2.17-6,3.68-8.83a15.75,15.75,0,0,1,7.14-6.54,27.9,27.9,0,0,1,3.17-1.51c.79-.29,1.8-.42,2.53-.7,1.6-.62,1.22-.18,1.84-2,.26-.8.42-1.59.72-2.38a45.69,45.69,0,0,1,2.87-6.57,15.54,15.54,0,0,1,6.24-5.9c1.92-1,5.66-2.51,7.73-2.18h.74c0-2.07,0-4.14,0-6.22a14.54,14.54,0,0,1,2.19-7.66,22.27,22.27,0,0,1,6.7-6.69,9.38,9.38,0,0,1,2.77-1.53c.85-.21,2,.25,2.61-.6-.19-1-.79-1.86-1-2.85a16.41,16.41,0,0,1,0-2.89,14.78,14.78,0,0,1,1.67-5.43,10,10,0,0,1,5.58-5.41,11,11,0,0,1,3.33-.71c.68,0,1.89.28,2.51,0,1.09-.55,1.11-2,1.49-3,.55-1.44,1.45-2.73,2.08-4.14,1.14-2.52,2.92-7.15,5.1-8.71,1.65-1.18,7-10.54,9-11s1.86.32,1,10"/><path class="cls-8" d="M1861,268V540.38a8.2,8.2,0,0,0,0,2.32c.51,1.39-1,.1.74-.49-1.85.63-3.8,2.46-5.44,3.49q-7.82,4.93-15.76,9.65c-19.64,11.71-39.68,22.74-60,33.3q-46.42,24.17-94.45,45.05-61.47,26.82-125,48.49-74.3,25.34-150.82,43.33a1473.65,1473.65,0,0,1-173.91,30q-22.68,2.51-45.41,4.27l1.5,1.5,5-105.19.47-9.93c.08-1.68.41-2.88-.69-4.25l-.66,2.51c3-1.25,7.44,1,9.54,2.39,1.25.82,2.32,1.81,3.94,1.41,1-.25,1.13-.93,1.94-1.35a10.53,10.53,0,0,1,4.87-.94c4.44-.07,8.13.73,11.65,3.61a1.52,1.52,0,0,0,2.12,0c4.16-4.73,9.21-7.21,15.66-5.16,3,1,3.68,2.1,6.41-.27,4.58-4,10.64-4.26,16.58-3.94a14.19,14.19,0,0,1,8,2.85c1.76,1.26,2.8,2.92,4.46,4.24a1.53,1.53,0,0,0,2.35-.3,46.22,46.22,0,0,1,2.87-4.05c1.88-2.39,3.77-2.21,6.55-3,2.1-.57,2.62-.7,4.13-2.52,3-3.56,5.37-6.37,9.9-7.89,3.58-1.2,7.52-.32,10.93-1.57,2.78-1,4.46-3.94,7.29-4.77,3.09-.9,5.05,2.19,7.76,1.86.76-.08.88-.4,1.65-.74,2.25-1,4.07-2.89,6.57-3.65a33.5,33.5,0,0,1,14.74-.65,1.54,1.54,0,0,0,1.69-.69c1.65-2.44,1.57-3.89,4.42-6.22,1.55-1.27,3.56-1.73,5.16-2.75,2.13-1.34,2.56-3,3.61-5.3,1.9-4.15,5.38-11.22,9.82-13,4.76-1.92,10.54-.12,15.25.58,3,.45,5.33-1.52,8.21-2.18a13.66,13.66,0,0,1,5.55-.42q1.21.68,2.4,1.38a5.2,5.2,0,0,0,2.25.29c1.43-.16,2.55-1.22,3.72-1.91a15.6,15.6,0,0,1,6.9-2.35c5.07-.53,10,.55,14.81,2.18a1.49,1.49,0,0,0,1.46-.39c2.86-3,6.93-5.86,11.4-4.33,2.55.87,2.85,3.3,5.29,4a1.52,1.52,0,0,0,1.85-1c1.37-5.7,8.77-1.92,11.94-5,1.38-1.33,1.87-3.56,3-5.13a10.67,10.67,0,0,1,9.48-4.42c2.85.1,5.4,2.25,7.63-.45,1.56-1.89,1.57-4.18,4-5.6,2.61-1.52,5.95-1.71,8.86-1.92a1.53,1.53,0,0,0,1.45-1.1c.41-3,1.08-5.41,3.39-7.67,2.11-2.07,4.23-2.39,6.63-3.81,2.74-1.63,3-4.49,5-6.95,1.26-1.58,3.76-4.23,5.49-4.77,2.23-.7,4.71.24,7-.38,3.81-1.06,4-5,8.63-5.63s7.81,2.36,12,2.62c2.51.16,3.2-1.21,4.88-2.65,4-3.45,10.45-3.32,15.57-3.08,2,.1,6.4,1.94,8.37.72s.94-4,1.87-5.72c1.7-3.13,5.22-1.87,7.3-4.11,1.15-1.23,1.25-3,2-4.45a13.42,13.42,0,0,1,4.76-4.56c2.26-1.45,6.08-2.33,7.78-4.45s.56-5.24,1.35-7.67c1.36-4.18,6-4.06,7.65-7.76,1.87-4.29.87-8.89,6.57-10.8,3.46-1.16,6.51-.28,9.91.26a1.52,1.52,0,0,0,1.9-1.44c-.21-7.47,10.07-6.75,14.86-5.1a1.51,1.51,0,0,0,1.69-.69c1.34-2.93,3.17-5,6.54-5.54,1.56-.25,3.44.52,5,0,2.21-.73,2.47-2.88,2.94-4.9.69-2.95,1.18-6,3.34-8.36.79-.85,1.93-1.41,2.54-2.43a7.49,7.49,0,0,0,.72-4.16,11.84,11.84,0,0,1,2-6.84c1.13-1.89,2.64-4,4.71-5,1.54-.74,3.17-.61,4.63-1.55,1.63-1.05,2.45-2.44,4.51-3.11,3.3-1.07,6.35-.51,9.47.9,2.48,1.12,4.08,2.88,6.68,1.52,1.67-.88,2.67-2.92,4.67-3.71s4.88-.25,7-.16a1.45,1.45,0,0,0,1.29-.74,9.63,9.63,0,0,0,.82-3.19c.48-3.4,1.48-4.59,3.77-7,2.08-2.2,2.5-3.35,2.66-6.42.16-3.27.17-5.93,2.49-8.47a47.54,47.54,0,0,1,4.1-3.8c1.79-1.55,5.07-2.67,6.23-4.81a14.18,14.18,0,0,0,.73-3.31c1-4,3.14-4.73,6.44-6.7,3-1.79,3.48-5.3,6.77-7.05a16.43,16.43,0,0,1,12.8-.55c2.5,1,2.25,1.59,4.8,1.14a1.5,1.5,0,0,0,1.1-1.45c0-3,.21-6.06,2.1-8.56,2.32-3.07,5.26-2.81,8.74-3.2a1.55,1.55,0,0,0,1.45-1.1,32.11,32.11,0,0,0,.11-6.2c0-3.63,1.91-7.13,3.87-10.12a16.59,16.59,0,0,1,7-5.79c1.65-.78,4.75-1.07,6.22-2.36a5.1,5.1,0,0,0,1.24-2.38c1.07-2.9,1.79-5.9,3.44-8.59a15.84,15.84,0,0,1,13.41-7.33,1.53,1.53,0,0,0,1.5-1.5c0-6-.25-11.22,4.16-15.93,1.65-1.75,3.82-3.72,6.11-4.48,1.28-.42,2.1-.24,3.25-1a1.53,1.53,0,0,0,.69-1.69c-1.52-4.46-.9-9.56,2.6-13a9,9,0,0,1,5.56-2.37c1-.12,2.25.3,3.27-.24,1.75-.94,2-3.32,2.66-4.93a73.5,73.5,0,0,1,4.27-8.68c2.1-3.37,5.21-6.64,7.61-9.87.76-1,1.65-1.92,2.43-2.91.61-.77,0-1,0-.27,0,2.85-.34,5.69-.59,8.52-.17,1.92,2.83,1.91,3,0,.21-2.38,2.64-11.73-2.13-11.57-4.26.13-7.86,8.63-10.27,11.36-2.68,3-4,6.22-5.84,9.85-.74,1.48-1.51,4.31-2.68,5.37-.93.84-3.54.53-4.93,1-7.67,2.38-10.24,11.7-7.88,18.6l.69-1.69c-1.5,1-3.68,1-5.37,2.13a24,24,0,0,0-6.28,5.77c-3.6,5-3.35,10.26-3.36,16.09l1.5-1.5a19.27,19.27,0,0,0-11.64,3.94,17.53,17.53,0,0,0-5.18,6.46c-1.18,2.39-1.58,6.4-3.32,8.22-1.47,1.53-5.74,2.33-7.7,3.53a17.88,17.88,0,0,0-5.26,4.61,31.45,31.45,0,0,0-4.27,7.85c-1.24,3.53-.14,6.78-.81,10.36l1.44-1.1c-4.33.48-7.49.07-10.6,3.63-2.74,3.14-3.18,7.13-3.24,11.13l1.1-1.44c-1.48.26-.43,0-.93-.18-1-.31-1.81-.82-2.82-1.1a22.81,22.81,0,0,0-8.61-.8,15.69,15.69,0,0,0-7.42,2.72c-2.9,2.12-4.07,5.06-7.21,6.92-2.4,1.43-4,2.54-5.15,5.19-.58,1.34-.46,3.11-1.1,4.35-.93,1.78-2.84,2.51-4.46,3.79-4.91,3.87-8.59,7.5-8.86,14-.13,3.08-.77,4.29-2.85,6.72a15.34,15.34,0,0,0-2.34,3,13.81,13.81,0,0,0-1.13,3.56c-.51,2.37-.07,2.39-2.85,2.44s-5.15.29-7.34,1.73c-1.07.7-1.1,1.37-2.43,1.82-1.92.65-3.17-.71-5-1.38-5.28-1.95-10.89-1.4-15.17,2.15-1.95,1.62-4.58,1.94-6.72,3.69a21.67,21.67,0,0,0-5.43,7.37,7.94,7.94,0,0,0-1,4.23c0,3-.35,4-2.32,6-2.67,2.72-3,6.21-4.11,9.68-.73,2.33-1.11,2.45-3.39,2.68-1.87.19-3.59-.16-5.35.64-2.64,1.21-4.24,3.87-5.39,6.38l1.7-.69c-4.24-1.45-9.06-2.16-13.45-.22-4.05,1.78-5.33,4.06-5.21,8.22l1.89-1.45c-4.63-.75-9.09-1.82-13.54.57a11.72,11.72,0,0,0-5,5.72,31.23,31.23,0,0,0-1.11,3.56c-.85,2.71-2.43,3.89-4.62,5.56a9.25,9.25,0,0,0-3.56,5,16.8,16.8,0,0,0-.46,3.32c-.18,2.64-.45,3.14-2.8,4.55-5.14,3.09-8.27,4.94-11.22,10.19-1.69,3-4,2.28-6.44,4.22-1.81,1.42-2.12,3-2.92,5-.73,1.78,0,1.62-2.38,1.22a33.41,33.41,0,0,0-4.34-.44,54.24,54.24,0,0,0-11.52.83,11.57,11.57,0,0,0-5.88,2.75c-2.69,2-3.54,2-6.34.91a18.89,18.89,0,0,0-4.18-1.14c-2.55-.34-5.78-.79-8.19.38-2.85,1.38-3.84,4.69-7.11,5.18-3.49.52-6.62-.28-9.43,2.48a37.5,37.5,0,0,0-5.35,6.81c-2.21,3.49-5.65,4.12-8.65,6.82s-4.2,5.6-4.74,9.5l1.45-1.1c-4.63.33-10.3.82-13.33,4.9-.43.57-.66,1.31-1.08,1.85-2.1,2.72-2.12,1.71-4.59,1.34a15.43,15.43,0,0,0-7,.61,12.89,12.89,0,0,0-5.28,3.53,19.27,19.27,0,0,0-2.5,3.81c-1.27,2.34-2,2.27-4.5,2.7-4,.69-8.37,1.32-9.48,5.95l1.84-1c-1-.28-2-2.26-2.94-2.9a10.08,10.08,0,0,0-5.77-1.46,15,15,0,0,0-7.1,1.9c-2,1.11-2.48,2.63-4.81,2.39-6.13-.64-11.61-2.67-17.85-.61-2.45.81-4.85,3.49-7.55,3-2.07-.39-3.38-1.55-5.79-1.39-2.57.18-4.82,1.24-7.25,1.86-3.31.84-6,0-9.32-.25-4.72-.38-10.4-.55-14,2.93a38.25,38.25,0,0,0-5.41,7.3c-1.63,2.63-2.83,6.94-5.3,8.93-1.87,1.51-4.52,2.21-6.44,3.85-2.23,1.91-2.5,3.92-4.1,6.29l1.7-.69a38.82,38.82,0,0,0-12.86,0,23.5,23.5,0,0,0-6.64,1.79c-1.16.53-2.15,1.65-3.27,2.12-1.67.71-1.19.59-3,0-.5-.16-1-.51-1.5-.68a8.75,8.75,0,0,0-3.67-.29c-3.88.48-5.8,4-9.37,5-4,1-7.93.57-12,2.24-3.47,1.44-5.69,3.71-8.26,6.34a10,10,0,0,1-4.91,3.21c-1.5.42-3,.43-4.36,1.29-2.66,1.66-4.36,4.75-6,7.33l2.36-.3c-2.35-1.87-3.42-3.77-6.14-5.45a14.78,14.78,0,0,0-5.47-2.23c-5-.9-12.6-.9-17.35,1.14a9.2,9.2,0,0,0-2.79,1.8,10,10,0,0,1-2.47,2.2l-.83-.46c-2.66,0-5.28-1.45-8.17-1.33-5.58.24-8.62,2.58-12.17,6.61h2.12c-5.73-4.69-12.33-5.3-19.4-3.6-1.71.41-1.84,1.18-4-.08-1.34-.77-2-1.79-3.57-2.2-1.85-.48-6-.78-7.85,0a1.54,1.54,0,0,0-.66,2.51c-.24-.31-.16-.79-.09.21a22,22,0,0,1-.12,2.43l-.4,8.46-1.34,28.07-3,63.44-.7,14.64a1.52,1.52,0,0,0,1.5,1.5,1458,1458,0,0,0,177.84-25.12,1563.39,1563.39,0,0,0,157.49-40.9q67.46-21.28,132.9-48.39,52.13-21.58,102.65-46.81c23.46-11.75,46.63-24.1,69.33-37.25,10.36-6,20.91-12,30.81-18.71,1.92-1.3,2-2.25,2-4.57V268a1.5,1.5,0,0,0-3,0Z"/></g><g id="foreground-smoke"><path class="cls-9" d="M15.6,327.23c0-4.35.51-9.06,0-13.37a9.38,9.38,0,0,0-2.39-5.53c-1.65-1.81-4.15-4.23-5.11-6.42-1.71-3.92.16-9.39-.48-13.59-.85-5.51-4.87-8.58-8.61-12.32L-.5,777.5,1867,778l-1.68-514.28c-3.13,3.19-6.27,6.65-6.35,11.28,0,1.93,1,3.32-.61,4.55-2.1,1.67-3.63,2.58-4.86,5.15-2,4.13-3.24,7.89-3,12.52.23,4.24,3,7.77,2.07,12.18-2.65.31-5.27,2.15-7.24,4s-4.23,4-5.24,6.33c-.8,1.84-.12,5.43-.12,7.49v6.88l-.73.2c-4.54,0-9.31-.2-13.51,1.82-2.92,1.4-7.43,4.94-8.91,7.75-2,3.89-1.22,9.11-2,13.32-.77,4.36-3.55,3.09-6.64,5.38-3.6,2.67-6.73,6.7-9.73,10-4.94,5.47-10.78,15.88-6.3,23.08,1.19,1.91,4.71,3.86,4,5.89-.31.84-1.44,1.64-2,2.45a15.49,15.49,0,0,0-1.9,4.87c-1.32,5.48-.51,11.39.71,16.8.59,2.64,1.62,4.44-1.17,5.5-2.24.85-4.61,1.14-6.86,2.13-5,2.22-7.33,5.87-9.74,10.73-2.14,4.34-.69,10.68-.85,15.46-.09,2.49-.25,4.69-3,4.17-1.3-.25-2.46-1.41-3.71-1.92-1.52-.63-3.13-1-4.7-1.56-2.81-1-5.22-.93-8.14-1-3.21,0-3.85.52-6.55,1.93s-5.4,2.63-8.08,3.86c-2.17,1-4.53,3.62-6.78,4-2.91.52-4.14-.53-6.55,1.77a48.77,48.77,0,0,0-4.86,5.1,48.06,48.06,0,0,0-6.67,10.95c-2,4.68,1,13.6-3.42,16.08-1.52.85-4.56.63-6.4,1.52-2,1-3.14,2.94-5,4.19-2.88,1.94-6.38,3.05-7.42,6.77-.43,1.51-.1,3.21-.11,4.76,0,1.87.19,3.5-1.89,4-1.89.47-3.56-.3-5.49.46-4.44,1.75-9.47,4.57-12.05,8.64a11,11,0,0,0-1.94,5c-.28,2.46.54,5.11-.05,7.53-3.54,0-6.8-2.4-10.53-2.36a17.93,17.93,0,0,0-5.44.44c-2.09.63-4,1.71-6.21,1.49h-1c-6.47,3.35-15.58,5.75-17.28,14.11-.81,3.93-.17,4-4,5.48a24.92,24.92,0,0,0-8.2,4.92c-5.29,5.06-9.37,12.83-8.1,20.28a25.56,25.56,0,0,0,1.33,5.14c.59,1.44,1.72,2.42,2.42,3.77s2.42,8.22,1.06,9.46c-4.32-.65-10.2-.31-13.5,2.84a18,18,0,0,0-4.36,6.35c-.91,2.27-.48,4.47-3.6,4.26-2.41-.16-5.49-1.55-7.85-2.07a81.3,81.3,0,0,0-17.48-1.49c-6.4,0-10.83,2.2-16.22,5.31-2.49,1.44-5.21,4.44-8.11,4.38-2.38,0-4.55-2.41-6.54-3.4-3-1.52-7.47-1.19-10.81-1-5.3.38-12.44,1.71-16.53,5.09q-1.74,1.49-3.46,3a22.73,22.73,0,0,1-2.07,2.52c-1.29.6-3.4.12-4.8.11-8.44-.09-15.26,4.82-18.5,12.6-1,2.3-.92,2.77-2.81,3.85a4.54,4.54,0,0,0-2.74.9c-.79.68-1.6,1.36-2.41,2a26.22,26.22,0,0,0-7.46,8.89c-1.28,2.37-1.35,3.81-3.87,3.05-1.42-.43-2.6-1.71-4-2.1-2.65-.76-6.11-.14-8.9-.16a17.55,17.55,0,0,0-4.84.75c-1.79.41-3.23-.22-4.67,1.12-2.72,2.5-6.68,6.7-6.72,10.06l.13-.29c-1.19-1.19-2.4-2.37-3.57-3.59-1.56-1.64-2.87-2-5-2.53-5.07-1.36-11.62-3.22-16.58-.7a21.71,21.71,0,0,1-7,2.34,16,16,0,0,0-8.39,3.66,57.81,57.81,0,0,0-4.76,4.5s-2.37,3.07-3.48,3.39c-.41.12-1.42,0-2,.09a17.77,17.77,0,0,0-2.38.75,13,13,0,0,0-5.49,3.7,67.07,67.07,0,0,0-7.35,10.39c-.77,1.4-1.91,4-3.43,4.58-.74.27-.75.11-1.51.17a14.8,14.8,0,0,0-9.77,5.2c-1.25,1.45-1.79,5.08-3.62,5.74-.93.33-2.37,0-3.37,0a23.88,23.88,0,0,0-5.86.3c-3,.75-5.58,2.7-8.53,3.58a44.47,44.47,0,0,0-5.66,1.56c-.62.27-2.87,1.78-3.74,1.89-1.16.14-.52.12-1.58-.42a55.65,55.65,0,0,1-8-4.82c-5.82-4.43-12.88-9.6-20.3-10.23a35.15,35.15,0,0,0-7,.51c-2.88.33-5.29.08-7.39,2.46-1.22,1.38-1.36,3-3.42,3.17-1,.07-2.12-.07-3.15-.07-6.09-.05-12.83.2-18.17,3.39-2.55,1.52-4.14,3.81-6.5,5.44-1.44,1-3.13,1.07-4.79,1.43-4.45,1-8,3.2-9.62,7.48-.91,2.33-1.85,1.9-4.1,2.29a15.71,15.71,0,0,0-5.47,2c-1.3.85-3.19,3.72-4.54,3.94-1.16.19-3.1-1.09-4.32-1.44-6.87-1.91-14.42-4.57-21.24-.87-.84.46-2.22,1.83-3.11,2-1.29.22-2.09-.94-3.14-1.67a35.09,35.09,0,0,0-8-4.36c-5.13-1.88-10.34-.91-15.58-.42-2.08.19-3.06,0-4.45-1.33a26.35,26.35,0,0,0-4-2.72c-1.45-1-2.31-2.58-3.83-3.47a22,22,0,0,0-6.77-2.25c-3.76-.75-8.56-1.17-12.17.34-3,1.25-5.44,3.59-8.31,4.85-3.36,1.47-7.06,1.73-10.29,3.57s-5.44,5.09-7.44,8.08c-.86,1.3-1.13,2.27-2.69,2.1a15.63,15.63,0,0,1-3.2-1.26c-5.83-2.25-14.22-3.14-19.43,1-2.54,2-5.67,4.48-9.06,4.18-1.47-.13-2.83-.67-4.32-.75a16.79,16.79,0,0,0-4.51.55c-3.35.68-7.17,1.24-10,3.39a25.49,25.49,0,0,0-3.52,3.81c-1,1.15-1.1,1.85-2.56,1.59-1.09-.19-2.3-1.14-3.44-1.45s-2.36-.72-3.46-1c-2.41-.5-4.52.2-6.81.56-5.53.87-12.67,1.88-16.11,6.92l-1.37-.69c.1-2.5-3.72-3.43-5.48-4.43-3-1.67-7-3.31-10.4-3-3.92.33-7.78,1.42-11.65,2.06-.58.09-3.84.94-4.94-.1-.18-.93-.39-1.84-.66-2.75a11.11,11.11,0,0,0-2.46-2.38c-1-.87-1.79-1.85-2.82-2.66-2.85-2.26-6.47-3.1-10-3.7-1.36-.24-5.54-.47-6.44-1.45-.48-.52-.11-1.56-.16-2-.32-3.18-.84-5.4-3.22-7.43-3.64-3.1-6.42-4.16-11.43-4-2.79.07-6.67,1.94-9.42,1.07-1.12-.35-1.68-1.29-2.56-2A17.86,17.86,0,0,0,923,719.69c-5.33-.19-14.49,1.12-17.14,6.24-.84,1.61-.61,1.85-2.48,2.05-.83.09-1.68,0-2.53.12-6.39.68-13.1,1.66-18.87,4.7-2.44,1.29-4.44,4.12-7.43,4.19-1.64,0-3.75-1.13-5.37-1.37a22.09,22.09,0,0,0-3.53-.12c-3.32,0-7.14-.32-10.18,1.34-1.1.61-2,1.48-3.19,2.08a14,14,0,0,0-3,2.07c-1.85,1.68-2.93,2.6-5.58,1.75s-5.08-2.42-7.86-3.15a43.59,43.59,0,0,0-28.8,2.82c-2.44,1.14-3.33.86-4.24-1.6a9.58,9.58,0,0,0-3.58-4.69,13.84,13.84,0,0,0-7.09-2c-1.79,0-3.68.31-5.33-.62s-2.29-3-3.48-4.54c-1.77-2.33-4.24-2.15-6.86-2.54a16.35,16.35,0,0,0-6.5.16c-1.49.32-4,1.5-5.53,1-1.13-.38-2.55-2.65-3.73-3.39-4.07-2.57-8.27-1.91-12.74-.52s-8.39,2.65-10.46,7.52c-.68,1.58.07,4.65-1.42,5.6-.66.42-2.54.08-3.32.2a26,26,0,0,0-3.07.87c-3.11.89-5.08,2.62-7.42,4.71-1.55,1.4-2.59,1.15-4.54,1.14-2.22,0-4.48-.13-6.69,0-3.36.28-5.32,1.4-8.2,2.86-.82-.77-1.43-2.89-1.87-3.9-.62-1.43-.82-3-1.73-4.34a22.11,22.11,0,0,0-7.6-6.61,11.26,11.26,0,0,0-5.11-1.1c-1.56,0-2,.23-3.11-.8-2.43-2.21-3.39-3-6.75-2.12a49.84,49.84,0,0,1-5.93,1.57c-1.65.2-2.22-.46-3-1.87-1.07-2.09-2.08-4.71-4.3-5.69-2.82-1.26-5.14-3.24-8-4.38a20.44,20.44,0,0,0-7.17-1.78c-5.59-.13-10.77,2-16.23,2.84a23.59,23.59,0,0,0-7.92,2.32,20.47,20.47,0,0,1-3.21,1.42,14.76,14.76,0,0,0-2.32,1,12.39,12.39,0,0,1-1.67,1.28c-2.28.68-3.41-2.69-4.76-4s-3.62-3.63-5.21-4.07-4.48,0-6.11.31c-2.73.58-3,.18-3.75-2.56a8.48,8.48,0,0,0-4.28-5.19c-.81-.33-1.88-.34-2.74-.62a13,13,0,0,0-3.56-.9c-1.85-.08-3.73,0-5.59,0a7.21,7.21,0,0,0-5.77,2.05l-.45-.28c.37-3-2.33-3-4.26-3.5a11.56,11.56,0,0,0-4-.74c-1.69.1-3,1.09-4.41.12-.86-.58-1.41-2.16-2.1-3s-1.66-1.61-2.46-2.42c-1.62-1.66-3.16-2.24-5.1-3.31s-2.9-2.19-5-2.87c-3.65-1.2-6.86-1.21-10.71-1.21-1.45,0-2.91,0-4.36,0-2.77,0-3.35,1-5.5,2.66s-4.18,3.23-6.36,4.75c-.76.53-1.34,1.24-2.06,1.78-1.7,1.31-2,1.48-3.2-.15a25.62,25.62,0,0,0-3.07-4.06,17.76,17.76,0,0,0-6.59-3.76c-5.62-1.77-11.91,0-17.47.74-2.39.32-3.08-.48-3.71-3.16-.54-2.28-.63-4.13-1.52-6.27-.53-1.28-.55-3.41-1.19-4.56-.49-.88-1.53-1.48-2.2-2.18-2.2-2.31.22-3.27,1.16-5.63a12.86,12.86,0,0,0,.47-4.9c0-2.23.46-4.9-.6-7-1.32-2.57-4.48-4-7.12-4.69-.81-.21-1.86-.6-2.72-.74-1.27-.2-3,.33-4.17-.35s-2-2.3-3-3.24-2-1.81-3-2.88a25.47,25.47,0,0,0-7.27-5.24c-4.34-2.13-11.58-2.65-16.36-1.66-1.78.37-3.23,1.49-4.89,2-2.75.89-4.09-2.45-6.21-4a24.85,24.85,0,0,0-6.81-3.7c-2.09-.58-4.78-.12-6.9-.14-5.34,0-11,2.07-14.22,6.4-1.28,1.72-1.71,1.41-3.52.68a58.32,58.32,0,0,0-6-2c-2.73-.76-4.61-1.12-7.33,0-2.89,1.19-5.49,2.89-8.33,4.14-3.38,1.48-7.64-1.75-10.85-2.79-2.54-.83-4.77-.56-7.33-1a26.29,26.29,0,0,0-4.12-.55c-1.28,0-2.6,0-3.87,0a6.49,6.49,0,0,0-2.67.19,1.89,1.89,0,0,1-2.19.57c-.56-1.95-.35-3.88-1.39-5.63a20.57,20.57,0,0,0-4.73-5c-2.29-2-1.48-5.16-1.5-7.88,0-4.89-4.43-6.74-7.64-9.66-1.89-1.73-2.72-4.09-5-5.58-2.71-1.77-6.48-2.36-9.57-3a18.8,18.8,0,0,0-8.11,0c-2.26.51-3.87,1.69-6,2.49-1.73.65-2.73.73-3.63-.85-1.64-2.89-2.68-5.92-4.74-8.59-2.86-3.71-6.78-7-11.6-7.11-1.29,0-2.65-.07-3.93,0-2.66.15-3.07.67-3.17,3.54l-.87.4c0-2-1-4.39-3.11-5a29,29,0,0,0-7.2-1.18c-1.53,0-2,.07-2.41-1.5a16.13,16.13,0,0,0-.42-2.37,13.78,13.78,0,0,0-1.24-1.71,18.94,18.94,0,0,0-6.7-6.58,33.84,33.84,0,0,0-7.39-2.49,27.75,27.75,0,0,0-4.44-1c-.62,0-1.19.28-1.76-.17-.72-.57-.5-2.43-.49-3.16.05-2.68.6-6.33-.09-9a8.51,8.51,0,0,0-2.23-3.9c-1.21-1-2.68-1.82-3.94-2.78s-2.38-1.4-2.7-2.87.56-3.18-.25-4.64c-1.72-3.06-6.06-3-8.92-3.93a40.81,40.81,0,0,0-4.75-1c-1.07-.2-3-.14-4-.63a27,27,0,0,1-3.59-2.86,8.32,8.32,0,0,0-4.34-2c-3.58-.34-7.27.35-10.85.05-1.86-.16-2.18-1.8-2.87-3.5a21.41,21.41,0,0,0-2.84-5.42c-1.59-2-4.94-4.08-7.27-5.12-1.27-.57-2.92-.52-3.1-2.26a24.8,24.8,0,0,1,.39-3.25c0-.63,0-1.31,0-1.94a27.45,27.45,0,0,0-.08-5.59,11.48,11.48,0,0,0-1.59-3.19,28.21,28.21,0,0,0-1.67-3.29,32.25,32.25,0,0,0-2.79-3.3c-1.55-1.56-1.87-3.33-3.31-5-2.37-2.8-5.14-6-8.75-7.16s-7.44-1.1-11.21-1.18c-1.61,0-3-.54-4.63-.58a32.47,32.47,0,0,0-4.93.29,14.66,14.66,0,0,0-3-5.78c-1.23-1.22-3.48-2.11-5-2.92s-4.2-1.48-4.51-3.17c-.22-1.22.49-2.8.59-4a25.09,25.09,0,0,0,.07-4,9.1,9.1,0,0,0-1.93-4.86,27.12,27.12,0,0,0-7.94-6.21,16.13,16.13,0,0,0-5.2-1.7,15.4,15.4,0,0,0-3.92-.56l-.56,1.68c0-3.29.53-6.75-2-9.3a25.16,25.16,0,0,0-4.56-3.4c-1.52-.94-3.43-1.55-3.49-3.48,0-1.58.24-2.75-.79-4.12A14.07,14.07,0,0,0,86,429.73c-1.86-.76-3.28-2-5.16-2.64a11.49,11.49,0,0,1-4.61-2.95c-1.3-1.29-2.18-2.15-2.25-4a18.51,18.51,0,0,0-.68-5.62c-.62-1.89-1.58-3-.21-4.86s4.3-2.5,6.19-3.86c1.33-1,1.22-3.51.34-4.92-1.28-2-3.9-3-5.14-5a2.31,2.31,0,0,1-.27-2.51c.32-.6,1-1,1.35-1.66.23-.44.26-1,.46-1.5.91-2.11,2-3.68.56-5.91-.93-1.43-2.23-2.11-3.58-3.07-1.81-1.27-3-2.59-5.16-3.38-2.7-1-5.41-2.23-8.33-2.2-2.42,0-4.85,0-7.27,0-1.3,0-4.56.59-5.55-.18-.33-2.05,2.17-4.13,2.12-6.3s-2.84-4.72-4.63-5.8-4.42-1.25-5.39-2.95c-.77-1.38-.47-3.08-.47-4.58,0-3.23-.77-6.44-1.17-9.64a24.62,24.62,0,0,0-2.17-7.93,11.86,11.86,0,0,0-2.4-2.9c-1.05-1.08-1.8-2.43-2.92-3.41a20.72,20.72,0,0,0-4.86-3.34c-2-.83-4.21.22-6-.95"/><path class="cls-9" d="M453.26,644.27c.8-5.2,7.86-7.84,11.65-7.81.95,0,2.63.31,3.48,0,1.16-.44,1.79-2.51,2.34-3.55,1.81-3.4,5-5.4,7.37-8.37,3.56-4.5,10.72-4.54,15.65-2.59,1.18.47,2.82,2.29,4,2.38,1.66.12,2.64-1.71,3.47-2.78,1.81-2.35,4-4.82,6.89-5.87a22.36,22.36,0,0,1,8.26-1.24c2.95,0,4.78,1,7.24,2.53,1.68,1,2,.76,3.2-.81a13.53,13.53,0,0,1,3.15-3.21,25.18,25.18,0,0,1,10.8-4.79c2.13-.32,5,.56,7.09,1.12a8.83,8.83,0,0,1,4.78,3,13.11,13.11,0,0,1,2.08,5.19c.44,2.08,0,3.68,2.63,4.06a8.14,8.14,0,0,1,4.6,1.68,17.57,17.57,0,0,1,5.33,4.68c.73,1,1.42,2.94,2.44,3.72a2.9,2.9,0,0,0,2.48.49c1.92-.26,3.79-.54,5.73-.77,4-.46,8.52-1.22,12.28.82a57.82,57.82,0,0,1,5.76,3.62c1.53,1.1,2.56,2.75,4,4,2.47,2.14,6.15-.48,8.92-1.31a28,28,0,0,1,4.75-1.28c2.2-.23,4.22.7,6-.74,1.55-1.24,2.62-3.06,4.25-4.22a13.68,13.68,0,0,1,5.46-2c1.09-.18,2.13,0,3.23-.27,2.07-.42,3.49-1.33,5.66-1.3a40,40,0,0,1,9.15,1.58c4.28,1.06,8.13,2.92,10.52,6.81,1.67,2.71,1.84,5.64,3,8.55,1.28,3.34,6.42,2.19,9.46,3.1,4.05,1.22,7.87,5.8,10.12,9.26a20,20,0,0,1,2.48,5.35c.35,1.18.28,3.46,1.34,4.28.61.46,4.57.69,4.44.67,1.58.21,3.17.41,4.74.68,2.48.43,4.6,1.65,6.89,2.64,4.37,1.87,8.84,3.64,12.09,7.34,1,1.16,1.7,2.68,2.75,3.79,1.48,1.54,2.14.5,4-.26,3.6-1.51,8.9-1.18,11.9,1.53,1.7,1.54,2.32,3.62,3,5.66.64,1.83.82,3.77,3,4.28,3.29.77,7-.11,10.36.41a43.59,43.59,0,0,1,7.52,2.31,36.64,36.64,0,0,1,9.51,4.59c2.27,1.64,2.89,3.92,4.55,5.94,1.89,2.29,4.65-.16,6.9-1,1.77-.64,3.69-1.11,5.51-1.58,4.07-1,9.32,3.81,12,6.56,1.94,2,1.69,4.38,2.8,6.58.61,1.22,1.75,1.39,3,1.74,2.93.81,5.94,1.2,8.87,2,6.63,1.9,10.77,5.9,14.64,11.44a23.1,23.1,0,0,1,2.56,5.77c.55,1.5,1.09,4.65,2.33,5.7C827.57,744.42,429,802,453.26,644.27Z"/><path class="cls-9" d="M454.7,644.67c1-4.07,5.41-6.3,9.35-6.68,2.29-.21,4.32.65,6.18-1.07.91-.84,1.2-2.21,1.8-3.25a23.67,23.67,0,0,1,4.25-5c3.4-3.38,5.85-6.45,11.12-6.44A13.8,13.8,0,0,1,494,623.8c1.12.63,2,1.76,3.37,2,2.45.39,3.86-1.8,5.18-3.45,3.55-4.41,8-6.71,13.83-6.38,3.2.19,4.7,2.11,7.53,2.85a3.56,3.56,0,0,0,2.07.11c2.15-.66,4.16-4.32,6.1-5.6,5-3.32,10.88-4.82,16.52-2.1,5,2.42,3.31,5.88,5.31,9.68,1.3,2.47,4.45,2,6.66,3.22a16,16,0,0,1,5.33,4.54c.84,1.16,1.36,2.63,2.41,3.63,2.56,2.43,6.55.92,9.62.54,5-.61,9.25-.83,13.71,1.88a27.61,27.61,0,0,1,5.3,4.06c1.13,1.14,2.11,2.55,3.73,3.06,2.72.85,5.51-.82,8-1.73a22.89,22.89,0,0,1,7.36-1.41c1.75-.08,2.86,0,4.4-1,1.39-.89,2.18-2.43,3.42-3.48,2.48-2.11,4.9-2.18,8-2.68,1.77-.29,3.46-.89,5.24-1.17,3.25-.51,6.81.46,10,1.32,5.57,1.51,9.38,4.27,11.16,10,.75,2.4.94,5.2,3.15,6.77,2,1.43,4.69,1.05,7,1.43,4.78.79,8.38,4.95,10.85,8.87a20.89,20.89,0,0,1,2.54,6c.33,1.26.29,2.6,1.29,3.58,1.24,1.23,3.11,1.18,4.77,1.36,8.28.9,18.95,4.44,24.31,11.23,1.51,1.9,2.3,3.91,5,4,1.08,0,3-1.25,3.76-1.48,3.28-1,7.14-.36,9.47,2.17,2.17,2.35,1.92,5.84,3.93,8.15,2.14,2.46,6,2,8.87,1.91,5.78-.08,11.68,2,16.82,4.59,3.32,1.67,4.77,3.56,6.91,6.41a7.11,7.11,0,0,0,2.62,2.63c2.86,1.18,6.37-1.55,8.91-2.33,3.08-.94,5.26-1.21,8.24.41a19.39,19.39,0,0,1,5.73,4.91c2.21,2.91,1.51,6.56,5.14,8.22,4.69,2.16,10.09,1.75,14.75,4.28a25.44,25.44,0,0,1,10.61,11.56c1.33,3,1.63,6.55,3.77,9.13l.66-2.51c-12.68,1.83-25.85,3.22-38.76,4.48-30.73,3-61.58,4.92-92.45,5.54-37,.73-74.19-.26-110.88-5.26-31.79-4.32-65.18-11.28-93-28.1-23.09-14-39-35.88-38.4-63.63a89.45,89.45,0,0,1,1-11.33c.29-1.89-2.6-2.7-2.89-.8-4.13,27.56,5.25,52.85,27.14,70.27,24.61,19.59,57,28.21,87.42,33.67,36.91,6.62,74.63,8.46,112.07,8.37,33.27-.07,66.53-1.81,99.66-4.77q16.7-1.49,33.34-3.43c4.88-.58,11.12-.39,15.8-2a3.47,3.47,0,0,1,.73-.1c1.23-.18,1.28-1.75.66-2.51-2.44-2.94-2.56-7.86-4.65-11.16a31.38,31.38,0,0,0-7.38-8.07,26.75,26.75,0,0,0-9.93-4.52c-2.7-.67-6.22-.68-8.35-2.59-1.85-1.66-1.8-3.95-3.21-6-3.4-4.91-9.55-9-15.55-7.51-4.24,1-8.29,4.37-11.39-.22-2.3-3.41-5.7-5.23-9.43-6.8-3.55-1.5-7.55-3.17-11.39-3.68-2.27-.3-4.76.35-7-.07-5.19-1-4.44-3-6-6.31a10.09,10.09,0,0,0-6-5.62,14.34,14.34,0,0,0-5.32-.76c-1.64.07-3.24,1-4.78,1.08-2.63.12,1,3.2-3.72-1.74-.44-.46-.72-1.09-1.16-1.55a24.59,24.59,0,0,0-3.91-3.37,61.65,61.65,0,0,0-12.71-6.09,38.64,38.64,0,0,0-9.12-1.7c-2.56-.31-2.53-.39-3.16-2.74a23.45,23.45,0,0,0-2.08-5.48c-3.17-5.72-8.06-10.94-14.77-11.67-3.51-.39-4.92-1.14-6.32-4.51-.61-1.5-.79-3.16-1.49-4.64a15.44,15.44,0,0,0-7.69-7.34c-8.15-3.78-16.26-3.26-24.69-1.25-3.81.9-5,3.06-7.88,5.26-2.54,1.92-4.48,1-7.26,1.53a38.27,38.27,0,0,0-6.5,2.12c-3.2,1.2-4.93.57-7.33-1.84a25.93,25.93,0,0,0-4.69-3.57,18.3,18.3,0,0,0-11.31-3.22c-2.2.1-4.39.44-6.57.72a15.15,15.15,0,0,1-2.3.32c-5.3-.17-3.07-.77-4.87-2.8-2.35-2.66-4.51-5.15-7.87-6.66-1.52-.69-3.49-.46-4.52-2-.65-1-.61-3.46-1-4.62a10,10,0,0,0-5.78-6c-7.56-3.14-15.62-1-21.65,4.35-1.56,1.4-2.09,3.12-4.3,2.61-1.9-.44-3.38-1.83-5.44-2.17a19.85,19.85,0,0,0-12.88,2.36c-1.67,1-2.8,2.57-4.24,3.87-1.73,1.57-.3,1.35-2.87,2.08-2.25.64-1.89.14-3.68-.73a17.51,17.51,0,0,0-10.15-1.19c-4.19.75-6.36,3.18-9.21,6.09a57.38,57.38,0,0,0-4.13,4.27c-1.76,2.24-1.83,4.65-5,5.2-5.92,1.05-12.5,1.78-14.23,8.84C451.35,645.75,454.24,646.55,454.7,644.67Z"/></g></svg>